<?xml version="1.0" encoding="utf-8" standalone="no"?>
<!DOCTYPE svg PUBLIC "-//W3C//DTD SVG 1.1//EN"
  "http://www.w3.org/Graphics/SVG/1.1/DTD/svg11.dtd">
<!-- Created with matplotlib (http://matplotlib.org/) -->
<svg height="335.273032pt" version="1.1" viewBox="0 0 454.58 335.273032" width="454.58pt" xmlns="http://www.w3.org/2000/svg" xmlns:xlink="http://www.w3.org/1999/xlink">
 <defs>
  <style type="text/css">
*{stroke-linecap:butt;stroke-linejoin:round;}
  </style>
 </defs>
 <g id="figure_1">
  <g id="patch_1">
   <path d="M 0 335.273032 
L 454.58 335.273032 
L 454.58 0 
L 0 0 
z
" style="fill:none;"/>
  </g>
  <g id="axes_1">
   <g id="patch_2">
    <path d="M 46.744851 312.711888 
L 443.88 312.711888 
L 443.88 10.7 
L 46.744851 10.7 
z
" style="fill:none;"/>
   </g>
   <g id="patch_3">
    <path clip-path="url(#pb43a86f25d)" d="M 54.382066 306.903967 
L 56.927804 306.903967 
L 56.927804 306.895181 
L 54.382066 306.895181 
z
" style="fill:#444488;"/>
   </g>
   <g id="patch_4">
    <path clip-path="url(#pb43a86f25d)" d="M 56.927804 306.903967 
L 59.473542 306.903967 
L 59.473542 306.862965 
L 56.927804 306.862965 
z
" style="fill:#444488;"/>
   </g>
   <g id="patch_5">
    <path clip-path="url(#pb43a86f25d)" d="M 59.473542 306.903967 
L 62.01928 306.903967 
L 62.01928 306.903967 
L 59.473542 306.903967 
z
" style="fill:#444488;"/>
   </g>
   <g id="patch_6">
    <path clip-path="url(#pb43a86f25d)" d="M 62.01928 306.903967 
L 64.565018 306.903967 
L 64.565018 306.87468 
L 62.01928 306.87468 
z
" style="fill:#444488;"/>
   </g>
   <g id="patch_7">
    <path clip-path="url(#pb43a86f25d)" d="M 64.565018 306.903967 
L 67.110756 306.903967 
L 67.110756 306.886395 
L 64.565018 306.886395 
z
" style="fill:#444488;"/>
   </g>
   <g id="patch_8">
    <path clip-path="url(#pb43a86f25d)" d="M 67.110756 306.903967 
L 69.656495 306.903967 
L 69.656495 306.854179 
L 67.110756 306.854179 
z
" style="fill:#444488;"/>
   </g>
   <g id="patch_9">
    <path clip-path="url(#pb43a86f25d)" d="M 69.656495 306.903967 
L 72.202233 306.903967 
L 72.202233 306.860036 
L 69.656495 306.860036 
z
" style="fill:#444488;"/>
   </g>
   <g id="patch_10">
    <path clip-path="url(#pb43a86f25d)" d="M 72.202233 306.903967 
L 74.747971 306.903967 
L 74.747971 306.862965 
L 72.202233 306.862965 
z
" style="fill:#444488;"/>
   </g>
   <g id="patch_11">
    <path clip-path="url(#pb43a86f25d)" d="M 74.747971 306.903967 
L 77.293709 306.903967 
L 77.293709 306.821963 
L 74.747971 306.821963 
z
" style="fill:#444488;"/>
   </g>
   <g id="patch_12">
    <path clip-path="url(#pb43a86f25d)" d="M 77.293709 306.903967 
L 79.839447 306.903967 
L 79.839447 306.85125 
L 77.293709 306.85125 
z
" style="fill:#444488;"/>
   </g>
   <g id="patch_13">
    <path clip-path="url(#pb43a86f25d)" d="M 79.839447 306.903967 
L 82.385185 306.903967 
L 82.385185 306.80439 
L 79.839447 306.80439 
z
" style="fill:#444488;"/>
   </g>
   <g id="patch_14">
    <path clip-path="url(#pb43a86f25d)" d="M 82.385185 306.903967 
L 84.930923 306.903967 
L 84.930923 306.798533 
L 82.385185 306.798533 
z
" style="fill:#444488;"/>
   </g>
   <g id="patch_15">
    <path clip-path="url(#pb43a86f25d)" d="M 84.930923 306.903967 
L 87.476661 306.903967 
L 87.476661 306.757531 
L 84.930923 306.757531 
z
" style="fill:#444488;"/>
   </g>
   <g id="patch_16">
    <path clip-path="url(#pb43a86f25d)" d="M 87.476661 306.903967 
L 90.0224 306.903967 
L 90.0224 306.789747 
L 87.476661 306.789747 
z
" style="fill:#444488;"/>
   </g>
   <g id="patch_17">
    <path clip-path="url(#pb43a86f25d)" d="M 90.0224 306.903967 
L 92.568138 306.903967 
L 92.568138 306.760459 
L 90.0224 306.760459 
z
" style="fill:#444488;"/>
   </g>
   <g id="patch_18">
    <path clip-path="url(#pb43a86f25d)" d="M 92.568138 306.903967 
L 95.113876 306.903967 
L 95.113876 306.687241 
L 92.568138 306.687241 
z
" style="fill:#444488;"/>
   </g>
   <g id="patch_19">
    <path clip-path="url(#pb43a86f25d)" d="M 95.113876 306.903967 
L 97.659614 306.903967 
L 97.659614 306.611094 
L 95.113876 306.611094 
z
" style="fill:#444488;"/>
   </g>
   <g id="patch_20">
    <path clip-path="url(#pb43a86f25d)" d="M 97.659614 306.903967 
L 100.205352 306.903967 
L 100.205352 306.637452 
L 97.659614 306.637452 
z
" style="fill:#444488;"/>
   </g>
   <g id="patch_21">
    <path clip-path="url(#pb43a86f25d)" d="M 100.205352 306.903967 
L 102.75109 306.903967 
L 102.75109 306.652096 
L 100.205352 306.652096 
z
" style="fill:#444488;"/>
   </g>
   <g id="patch_22">
    <path clip-path="url(#pb43a86f25d)" d="M 102.75109 306.903967 
L 105.296828 306.903967 
L 105.296828 306.417797 
L 102.75109 306.417797 
z
" style="fill:#444488;"/>
   </g>
   <g id="patch_23">
    <path clip-path="url(#pb43a86f25d)" d="M 105.296828 306.903967 
L 107.842567 306.903967 
L 107.842567 306.426583 
L 105.296828 306.426583 
z
" style="fill:#444488;"/>
   </g>
   <g id="patch_24">
    <path clip-path="url(#pb43a86f25d)" d="M 107.842567 306.903967 
L 110.388305 306.903967 
L 110.388305 306.391438 
L 107.842567 306.391438 
z
" style="fill:#444488;"/>
   </g>
   <g id="patch_25">
    <path clip-path="url(#pb43a86f25d)" d="M 110.388305 306.903967 
L 112.934043 306.903967 
L 112.934043 306.233287 
L 110.388305 306.233287 
z
" style="fill:#444488;"/>
   </g>
   <g id="patch_26">
    <path clip-path="url(#pb43a86f25d)" d="M 112.934043 306.903967 
L 115.479781 306.903967 
L 115.479781 306.11028 
L 112.934043 306.11028 
z
" style="fill:#444488;"/>
   </g>
   <g id="patch_27">
    <path clip-path="url(#pb43a86f25d)" d="M 115.479781 306.903967 
L 118.025519 306.903967 
L 118.025519 305.990201 
L 115.479781 305.990201 
z
" style="fill:#444488;"/>
   </g>
   <g id="patch_28">
    <path clip-path="url(#pb43a86f25d)" d="M 118.025519 306.903967 
L 120.571257 306.903967 
L 120.571257 305.957985 
L 118.025519 305.957985 
z
" style="fill:#444488;"/>
   </g>
   <g id="patch_29">
    <path clip-path="url(#pb43a86f25d)" d="M 120.571257 306.903967 
L 123.116995 306.903967 
L 123.116995 305.627038 
L 120.571257 305.627038 
z
" style="fill:#444488;"/>
   </g>
   <g id="patch_30">
    <path clip-path="url(#pb43a86f25d)" d="M 123.116995 306.903967 
L 125.662733 306.903967 
L 125.662733 305.331235 
L 123.116995 305.331235 
z
" style="fill:#444488;"/>
   </g>
   <g id="patch_31">
    <path clip-path="url(#pb43a86f25d)" d="M 125.662733 306.903967 
L 128.208472 306.903967 
L 128.208472 305.433741 
L 125.662733 305.433741 
z
" style="fill:#444488;"/>
   </g>
   <g id="patch_32">
    <path clip-path="url(#pb43a86f25d)" d="M 128.208472 306.903967 
L 130.75421 306.903967 
L 130.75421 304.973929 
L 128.208472 304.973929 
z
" style="fill:#444488;"/>
   </g>
   <g id="patch_33">
    <path clip-path="url(#pb43a86f25d)" d="M 130.75421 306.903967 
L 133.299948 306.903967 
L 133.299948 304.845065 
L 130.75421 304.845065 
z
" style="fill:#444488;"/>
   </g>
   <g id="patch_34">
    <path clip-path="url(#pb43a86f25d)" d="M 133.299948 306.903967 
L 135.845686 306.903967 
L 135.845686 304.306177 
L 133.299948 304.306177 
z
" style="fill:#444488;"/>
   </g>
   <g id="patch_35">
    <path clip-path="url(#pb43a86f25d)" d="M 135.845686 306.903967 
L 138.391424 306.903967 
L 138.391424 304.057235 
L 135.845686 304.057235 
z
" style="fill:#444488;"/>
   </g>
   <g id="patch_36">
    <path clip-path="url(#pb43a86f25d)" d="M 138.391424 306.903967 
L 140.937162 306.903967 
L 140.937162 303.354337 
L 138.391424 303.354337 
z
" style="fill:#444488;"/>
   </g>
   <g id="patch_37">
    <path clip-path="url(#pb43a86f25d)" d="M 140.937162 306.903967 
L 143.4829 306.903967 
L 143.4829 303.32505 
L 140.937162 303.32505 
z
" style="fill:#444488;"/>
   </g>
   <g id="patch_38">
    <path clip-path="url(#pb43a86f25d)" d="M 143.4829 306.903967 
L 146.028639 306.903967 
L 146.028639 302.595794 
L 143.4829 302.595794 
z
" style="fill:#444488;"/>
   </g>
   <g id="patch_39">
    <path clip-path="url(#pb43a86f25d)" d="M 146.028639 306.903967 
L 148.574377 306.903967 
L 148.574377 302.765661 
L 146.028639 302.765661 
z
" style="fill:#444488;"/>
   </g>
   <g id="patch_40">
    <path clip-path="url(#pb43a86f25d)" d="M 148.574377 306.903967 
L 151.120115 306.903967 
L 151.120115 301.014276 
L 148.574377 301.014276 
z
" style="fill:#444488;"/>
   </g>
   <g id="patch_41">
    <path clip-path="url(#pb43a86f25d)" d="M 151.120115 306.903967 
L 153.665853 306.903967 
L 153.665853 301.682028 
L 151.120115 301.682028 
z
" style="fill:#444488;"/>
   </g>
   <g id="patch_42">
    <path clip-path="url(#pb43a86f25d)" d="M 153.665853 306.903967 
L 156.211591 306.903967 
L 156.211591 301.02892 
L 153.665853 301.02892 
z
" style="fill:#444488;"/>
   </g>
   <g id="patch_43">
    <path clip-path="url(#pb43a86f25d)" d="M 156.211591 306.903967 
L 158.757329 306.903967 
L 158.757329 299.224818 
L 156.211591 299.224818 
z
" style="fill:#444488;"/>
   </g>
   <g id="patch_44">
    <path clip-path="url(#pb43a86f25d)" d="M 158.757329 306.903967 
L 161.303067 306.903967 
L 161.303067 298.559994 
L 158.757329 298.559994 
z
" style="fill:#444488;"/>
   </g>
   <g id="patch_45">
    <path clip-path="url(#pb43a86f25d)" d="M 161.303067 306.903967 
L 163.848805 306.903967 
L 163.848805 299.298036 
L 161.303067 299.298036 
z
" style="fill:#444488;"/>
   </g>
   <g id="patch_46">
    <path clip-path="url(#pb43a86f25d)" d="M 163.848805 306.903967 
L 166.394544 306.903967 
L 166.394544 296.096926 
L 163.848805 296.096926 
z
" style="fill:#444488;"/>
   </g>
   <g id="patch_47">
    <path clip-path="url(#pb43a86f25d)" d="M 166.394544 306.903967 
L 168.940282 306.903967 
L 168.940282 296.773464 
L 166.394544 296.773464 
z
" style="fill:#444488;"/>
   </g>
   <g id="patch_48">
    <path clip-path="url(#pb43a86f25d)" d="M 168.940282 306.903967 
L 171.48602 306.903967 
L 171.48602 295.15973 
L 168.940282 295.15973 
z
" style="fill:#444488;"/>
   </g>
   <g id="patch_49">
    <path clip-path="url(#pb43a86f25d)" d="M 171.48602 306.903967 
L 174.031758 306.903967 
L 174.031758 294.550552 
L 171.48602 294.550552 
z
" style="fill:#444488;"/>
   </g>
   <g id="patch_50">
    <path clip-path="url(#pb43a86f25d)" d="M 174.031758 306.903967 
L 176.577496 306.903967 
L 176.577496 291.399231 
L 174.031758 291.399231 
z
" style="fill:#444488;"/>
   </g>
   <g id="patch_51">
    <path clip-path="url(#pb43a86f25d)" d="M 176.577496 306.903967 
L 179.123234 306.903967 
L 179.123234 289.978793 
L 176.577496 289.978793 
z
" style="fill:#444488;"/>
   </g>
   <g id="patch_52">
    <path clip-path="url(#pb43a86f25d)" d="M 179.123234 306.903967 
L 181.668972 306.903967 
L 181.668972 288.819013 
L 179.123234 288.819013 
z
" style="fill:#444488;"/>
   </g>
   <g id="patch_53">
    <path clip-path="url(#pb43a86f25d)" d="M 181.668972 306.903967 
L 184.21471 306.903967 
L 184.21471 288.502709 
L 181.668972 288.502709 
z
" style="fill:#444488;"/>
   </g>
   <g id="patch_54">
    <path clip-path="url(#pb43a86f25d)" d="M 184.21471 306.903967 
L 186.760449 306.903967 
L 186.760449 286.066 
L 184.21471 286.066 
z
" style="fill:#444488;"/>
   </g>
   <g id="patch_55">
    <path clip-path="url(#pb43a86f25d)" d="M 186.760449 306.903967 
L 189.306187 306.903967 
L 189.306187 282.39922 
L 186.760449 282.39922 
z
" style="fill:#444488;"/>
   </g>
   <g id="patch_56">
    <path clip-path="url(#pb43a86f25d)" d="M 189.306187 306.903967 
L 191.851925 306.903967 
L 191.851925 282.361146 
L 189.306187 282.361146 
z
" style="fill:#444488;"/>
   </g>
   <g id="patch_57">
    <path clip-path="url(#pb43a86f25d)" d="M 191.851925 306.903967 
L 194.397663 306.903967 
L 194.397663 280.38132 
L 191.851925 280.38132 
z
" style="fill:#444488;"/>
   </g>
   <g id="patch_58">
    <path clip-path="url(#pb43a86f25d)" d="M 194.397663 306.903967 
L 196.943401 306.903967 
L 196.943401 276.43631 
L 194.397663 276.43631 
z
" style="fill:#444488;"/>
   </g>
   <g id="patch_59">
    <path clip-path="url(#pb43a86f25d)" d="M 196.943401 306.903967 
L 199.489139 306.903967 
L 199.489139 274.919224 
L 196.943401 274.919224 
z
" style="fill:#444488;"/>
   </g>
   <g id="patch_60">
    <path clip-path="url(#pb43a86f25d)" d="M 199.489139 306.903967 
L 202.034877 306.903967 
L 202.034877 273.21177 
L 199.489139 273.21177 
z
" style="fill:#444488;"/>
   </g>
   <g id="patch_61">
    <path clip-path="url(#pb43a86f25d)" d="M 202.034877 306.903967 
L 204.580616 306.903967 
L 204.580616 268.763018 
L 202.034877 268.763018 
z
" style="fill:#444488;"/>
   </g>
   <g id="patch_62">
    <path clip-path="url(#pb43a86f25d)" d="M 204.580616 306.903967 
L 207.126354 306.903967 
L 207.126354 266.11251 
L 204.580616 266.11251 
z
" style="fill:#444488;"/>
   </g>
   <g id="patch_63">
    <path clip-path="url(#pb43a86f25d)" d="M 207.126354 306.903967 
L 209.672092 306.903967 
L 209.672092 264.864868 
L 207.126354 264.864868 
z
" style="fill:#444488;"/>
   </g>
   <g id="patch_64">
    <path clip-path="url(#pb43a86f25d)" d="M 209.672092 306.903967 
L 212.21783 306.903967 
L 212.21783 256.523824 
L 209.672092 256.523824 
z
" style="fill:#444488;"/>
   </g>
   <g id="patch_65">
    <path clip-path="url(#pb43a86f25d)" d="M 212.21783 306.903967 
L 214.763568 306.903967 
L 214.763568 254.737294 
L 212.21783 254.737294 
z
" style="fill:#444488;"/>
   </g>
   <g id="patch_66">
    <path clip-path="url(#pb43a86f25d)" d="M 214.763568 306.903967 
L 217.309306 306.903967 
L 217.309306 251.480537 
L 214.763568 251.480537 
z
" style="fill:#444488;"/>
   </g>
   <g id="patch_67">
    <path clip-path="url(#pb43a86f25d)" d="M 217.309306 306.903967 
L 219.855044 306.903967 
L 219.855044 246.563187 
L 217.309306 246.563187 
z
" style="fill:#444488;"/>
   </g>
   <g id="patch_68">
    <path clip-path="url(#pb43a86f25d)" d="M 219.855044 306.903967 
L 222.400782 306.903967 
L 222.400782 248.165206 
L 219.855044 248.165206 
z
" style="fill:#444488;"/>
   </g>
   <g id="patch_69">
    <path clip-path="url(#pb43a86f25d)" d="M 222.400782 306.903967 
L 224.946521 306.903967 
L 224.946521 239.64258 
L 222.400782 239.64258 
z
" style="fill:#444488;"/>
   </g>
   <g id="patch_70">
    <path clip-path="url(#pb43a86f25d)" d="M 224.946521 306.903967 
L 227.492259 306.903967 
L 227.492259 236.207171 
L 224.946521 236.207171 
z
" style="fill:#444488;"/>
   </g>
   <g id="patch_71">
    <path clip-path="url(#pb43a86f25d)" d="M 227.492259 306.903967 
L 230.037997 306.903967 
L 230.037997 230.586923 
L 227.492259 230.586923 
z
" style="fill:#444488;"/>
   </g>
   <g id="patch_72">
    <path clip-path="url(#pb43a86f25d)" d="M 230.037997 306.903967 
L 232.583735 306.903967 
L 232.583735 227.757763 
L 230.037997 227.757763 
z
" style="fill:#444488;"/>
   </g>
   <g id="patch_73">
    <path clip-path="url(#pb43a86f25d)" d="M 232.583735 306.903967 
L 235.129473 306.903967 
L 235.129473 223.3793 
L 232.583735 223.3793 
z
" style="fill:#444488;"/>
   </g>
   <g id="patch_74">
    <path clip-path="url(#pb43a86f25d)" d="M 235.129473 306.903967 
L 237.675211 306.903967 
L 237.675211 215.23741 
L 235.129473 215.23741 
z
" style="fill:#444488;"/>
   </g>
   <g id="patch_75">
    <path clip-path="url(#pb43a86f25d)" d="M 237.675211 306.903967 
L 240.220949 306.903967 
L 240.220949 210.416708 
L 237.675211 210.416708 
z
" style="fill:#444488;"/>
   </g>
   <g id="patch_76">
    <path clip-path="url(#pb43a86f25d)" d="M 240.220949 306.903967 
L 242.766688 306.903967 
L 242.766688 203.557604 
L 240.220949 203.557604 
z
" style="fill:#444488;"/>
   </g>
   <g id="patch_77">
    <path clip-path="url(#pb43a86f25d)" d="M 242.766688 306.903967 
L 245.312426 306.903967 
L 245.312426 206.35162 
L 242.766688 206.35162 
z
" style="fill:#444488;"/>
   </g>
   <g id="patch_78">
    <path clip-path="url(#pb43a86f25d)" d="M 245.312426 306.903967 
L 247.858164 306.903967 
L 247.858164 193.494462 
L 245.312426 193.494462 
z
" style="fill:#444488;"/>
   </g>
   <g id="patch_79">
    <path clip-path="url(#pb43a86f25d)" d="M 247.858164 306.903967 
L 250.403902 306.903967 
L 250.403902 186.799368 
L 247.858164 186.799368 
z
" style="fill:#444488;"/>
   </g>
   <g id="patch_80">
    <path clip-path="url(#pb43a86f25d)" d="M 250.403902 306.903967 
L 252.94964 306.903967 
L 252.94964 190.767807 
L 250.403902 190.767807 
z
" style="fill:#444488;"/>
   </g>
   <g id="patch_81">
    <path clip-path="url(#pb43a86f25d)" d="M 252.94964 306.903967 
L 255.495378 306.903967 
L 255.495378 162.215545 
L 252.94964 162.215545 
z
" style="fill:#444488;"/>
   </g>
   <g id="patch_82">
    <path clip-path="url(#pb43a86f25d)" d="M 255.495378 306.903967 
L 258.041116 306.903967 
L 258.041116 182.561485 
L 255.495378 182.561485 
z
" style="fill:#444488;"/>
   </g>
   <g id="patch_83">
    <path clip-path="url(#pb43a86f25d)" d="M 258.041116 306.903967 
L 260.586854 306.903967 
L 260.586854 173.558545 
L 258.041116 173.558545 
z
" style="fill:#444488;"/>
   </g>
   <g id="patch_84">
    <path clip-path="url(#pb43a86f25d)" d="M 260.586854 306.903967 
L 263.132593 306.903967 
L 263.132593 158.935358 
L 260.586854 158.935358 
z
" style="fill:#444488;"/>
   </g>
   <g id="patch_85">
    <path clip-path="url(#pb43a86f25d)" d="M 263.132593 306.903967 
L 265.678331 306.903967 
L 265.678331 169.349949 
L 263.132593 169.349949 
z
" style="fill:#444488;"/>
   </g>
   <g id="patch_86">
    <path clip-path="url(#pb43a86f25d)" d="M 265.678331 306.903967 
L 268.224069 306.903967 
L 268.224069 139.810702 
L 265.678331 139.810702 
z
" style="fill:#444488;"/>
   </g>
   <g id="patch_87">
    <path clip-path="url(#pb43a86f25d)" d="M 268.224069 306.903967 
L 270.769807 306.903967 
L 270.769807 143.213895 
L 268.224069 143.213895 
z
" style="fill:#444488;"/>
   </g>
   <g id="patch_88">
    <path clip-path="url(#pb43a86f25d)" d="M 270.769807 306.903967 
L 273.315545 306.903967 
L 273.315545 148.611558 
L 270.769807 148.611558 
z
" style="fill:#444488;"/>
   </g>
   <g id="patch_89">
    <path clip-path="url(#pb43a86f25d)" d="M 273.315545 306.903967 
L 275.861283 306.903967 
L 275.861283 107.975324 
L 273.315545 107.975324 
z
" style="fill:#444488;"/>
   </g>
   <g id="patch_90">
    <path clip-path="url(#pb43a86f25d)" d="M 275.861283 306.903967 
L 278.407021 306.903967 
L 278.407021 129.604052 
L 275.861283 129.604052 
z
" style="fill:#444488;"/>
   </g>
   <g id="patch_91">
    <path clip-path="url(#pb43a86f25d)" d="M 278.407021 306.903967 
L 280.95276 306.903967 
L 280.95276 128.47063 
L 278.407021 128.47063 
z
" style="fill:#444488;"/>
   </g>
   <g id="patch_92">
    <path clip-path="url(#pb43a86f25d)" d="M 280.95276 306.903967 
L 283.498498 306.903967 
L 283.498498 108.42635 
L 280.95276 108.42635 
z
" style="fill:#444488;"/>
   </g>
   <g id="patch_93">
    <path clip-path="url(#pb43a86f25d)" d="M 283.498498 306.903967 
L 286.044236 306.903967 
L 286.044236 123.78465 
L 283.498498 123.78465 
z
" style="fill:#444488;"/>
   </g>
   <g id="patch_94">
    <path clip-path="url(#pb43a86f25d)" d="M 286.044236 306.903967 
L 288.589974 306.903967 
L 288.589974 93.349209 
L 286.044236 93.349209 
z
" style="fill:#444488;"/>
   </g>
   <g id="patch_95">
    <path clip-path="url(#pb43a86f25d)" d="M 288.589974 306.903967 
L 291.135712 306.903967 
L 291.135712 86.299738 
L 288.589974 86.299738 
z
" style="fill:#444488;"/>
   </g>
   <g id="patch_96">
    <path clip-path="url(#pb43a86f25d)" d="M 291.135712 306.903967 
L 293.68145 306.903967 
L 293.68145 101.192368 
L 291.135712 101.192368 
z
" style="fill:#444488;"/>
   </g>
   <g id="patch_97">
    <path clip-path="url(#pb43a86f25d)" d="M 293.68145 306.903967 
L 296.227188 306.903967 
L 296.227188 84.961305 
L 293.68145 84.961305 
z
" style="fill:#444488;"/>
   </g>
   <g id="patch_98">
    <path clip-path="url(#pb43a86f25d)" d="M 296.227188 306.903967 
L 298.772926 306.903967 
L 298.772926 98.251916 
L 296.227188 98.251916 
z
" style="fill:#444488;"/>
   </g>
   <g id="patch_99">
    <path clip-path="url(#pb43a86f25d)" d="M 298.772926 306.903967 
L 301.318665 306.903967 
L 301.318665 89.998733 
L 298.772926 89.998733 
z
" style="fill:#444488;"/>
   </g>
   <g id="patch_100">
    <path clip-path="url(#pb43a86f25d)" d="M 301.318665 306.903967 
L 303.864403 306.903967 
L 303.864403 81.757266 
L 301.318665 81.757266 
z
" style="fill:#444488;"/>
   </g>
   <g id="patch_101">
    <path clip-path="url(#pb43a86f25d)" d="M 303.864403 306.903967 
L 306.410141 306.903967 
L 306.410141 72.859761 
L 303.864403 72.859761 
z
" style="fill:#444488;"/>
   </g>
   <g id="patch_102">
    <path clip-path="url(#pb43a86f25d)" d="M 306.410141 306.903967 
L 308.955879 306.903967 
L 308.955879 58.383011 
L 306.410141 58.383011 
z
" style="fill:#444488;"/>
   </g>
   <g id="patch_103">
    <path clip-path="url(#pb43a86f25d)" d="M 308.955879 306.903967 
L 311.501617 306.903967 
L 311.501617 89.266549 
L 308.955879 89.266549 
z
" style="fill:#444488;"/>
   </g>
   <g id="patch_104">
    <path clip-path="url(#pb43a86f25d)" d="M 311.501617 306.903967 
L 314.047355 306.903967 
L 314.047355 47.332884 
L 311.501617 47.332884 
z
" style="fill:#444488;"/>
   </g>
   <g id="patch_105">
    <path clip-path="url(#pb43a86f25d)" d="M 314.047355 306.903967 
L 316.593093 306.903967 
L 316.593093 44.421719 
L 314.047355 44.421719 
z
" style="fill:#444488;"/>
   </g>
   <g id="patch_106">
    <path clip-path="url(#pb43a86f25d)" d="M 316.593093 306.903967 
L 319.138832 306.903967 
L 319.138832 75.76214 
L 316.593093 75.76214 
z
" style="fill:#444488;"/>
   </g>
   <g id="patch_107">
    <path clip-path="url(#pb43a86f25d)" d="M 319.138832 306.903967 
L 321.68457 306.903967 
L 321.68457 99.534703 
L 319.138832 99.534703 
z
" style="fill:#444488;"/>
   </g>
   <g id="patch_108">
    <path clip-path="url(#pb43a86f25d)" d="M 321.68457 306.903967 
L 324.230308 306.903967 
L 324.230308 51.058238 
L 321.68457 51.058238 
z
" style="fill:#444488;"/>
   </g>
   <g id="patch_109">
    <path clip-path="url(#pb43a86f25d)" d="M 324.230308 306.903967 
L 326.776046 306.903967 
L 326.776046 62.494958 
L 324.230308 62.494958 
z
" style="fill:#444488;"/>
   </g>
   <g id="patch_110">
    <path clip-path="url(#pb43a86f25d)" d="M 326.776046 306.903967 
L 329.321784 306.903967 
L 329.321784 78.825599 
L 326.776046 78.825599 
z
" style="fill:#444488;"/>
   </g>
   <g id="patch_111">
    <path clip-path="url(#pb43a86f25d)" d="M 329.321784 306.903967 
L 331.867522 306.903967 
L 331.867522 16.528422 
L 329.321784 16.528422 
z
" style="fill:#444488;"/>
   </g>
   <g id="patch_112">
    <path clip-path="url(#pb43a86f25d)" d="M 331.867522 306.903967 
L 334.41326 306.903967 
L 334.41326 96.526889 
L 331.867522 96.526889 
z
" style="fill:#444488;"/>
   </g>
   <g id="patch_113">
    <path clip-path="url(#pb43a86f25d)" d="M 334.41326 306.903967 
L 336.958998 306.903967 
L 336.958998 123.166686 
L 334.41326 123.166686 
z
" style="fill:#444488;"/>
   </g>
   <g id="patch_114">
    <path clip-path="url(#pb43a86f25d)" d="M 336.958998 306.903967 
L 339.504737 306.903967 
L 339.504737 16.507921 
L 336.958998 16.507921 
z
" style="fill:#444488;"/>
   </g>
   <g id="patch_115">
    <path clip-path="url(#pb43a86f25d)" d="M 339.504737 306.903967 
L 342.050475 306.903967 
L 342.050475 88.384999 
L 339.504737 88.384999 
z
" style="fill:#444488;"/>
   </g>
   <g id="patch_116">
    <path clip-path="url(#pb43a86f25d)" d="M 342.050475 306.903967 
L 344.596213 306.903967 
L 344.596213 80.366115 
L 342.050475 80.366115 
z
" style="fill:#444488;"/>
   </g>
   <g id="patch_117">
    <path clip-path="url(#pb43a86f25d)" d="M 344.596213 306.903967 
L 347.141951 306.903967 
L 347.141951 74.195265 
L 344.596213 74.195265 
z
" style="fill:#444488;"/>
   </g>
   <g id="patch_118">
    <path clip-path="url(#pb43a86f25d)" d="M 347.141951 306.903967 
L 349.687689 306.903967 
L 349.687689 92.526234 
L 347.141951 92.526234 
z
" style="fill:#444488;"/>
   </g>
   <g id="patch_119">
    <path clip-path="url(#pb43a86f25d)" d="M 349.687689 306.903967 
L 352.233427 306.903967 
L 352.233427 33.500456 
L 349.687689 33.500456 
z
" style="fill:#444488;"/>
   </g>
   <g id="patch_120">
    <path clip-path="url(#pb43a86f25d)" d="M 352.233427 306.903967 
L 354.779165 306.903967 
L 354.779165 107.925536 
L 352.233427 107.925536 
z
" style="fill:#444488;"/>
   </g>
   <g id="patch_121">
    <path clip-path="url(#pb43a86f25d)" d="M 354.779165 306.903967 
L 357.324903 306.903967 
L 357.324903 168.983857 
L 354.779165 168.983857 
z
" style="fill:#444488;"/>
   </g>
   <g id="patch_122">
    <path clip-path="url(#pb43a86f25d)" d="M 357.324903 306.903967 
L 359.870642 306.903967 
L 359.870642 110.953851 
L 357.324903 110.953851 
z
" style="fill:#444488;"/>
   </g>
   <g id="patch_123">
    <path clip-path="url(#pb43a86f25d)" d="M 359.870642 306.903967 
L 362.41638 306.903967 
L 362.41638 90.534692 
L 359.870642 90.534692 
z
" style="fill:#444488;"/>
   </g>
   <g id="patch_124">
    <path clip-path="url(#pb43a86f25d)" d="M 362.41638 306.903967 
L 364.962118 306.903967 
L 364.962118 126.224288 
L 362.41638 126.224288 
z
" style="fill:#444488;"/>
   </g>
   <g id="patch_125">
    <path clip-path="url(#pb43a86f25d)" d="M 364.962118 306.903967 
L 367.507856 306.903967 
L 367.507856 17.398257 
L 364.962118 17.398257 
z
" style="fill:#444488;"/>
   </g>
   <g id="patch_126">
    <path clip-path="url(#pb43a86f25d)" d="M 367.507856 306.903967 
L 370.053594 306.903967 
L 370.053594 195.611939 
L 367.507856 195.611939 
z
" style="fill:#444488;"/>
   </g>
   <g id="patch_127">
    <path clip-path="url(#pb43a86f25d)" d="M 370.053594 306.903967 
L 372.599332 306.903967 
L 372.599332 160.461231 
L 370.053594 160.461231 
z
" style="fill:#444488;"/>
   </g>
   <g id="patch_128">
    <path clip-path="url(#pb43a86f25d)" d="M 372.599332 306.903967 
L 375.14507 306.903967 
L 375.14507 200.672798 
L 372.599332 200.672798 
z
" style="fill:#444488;"/>
   </g>
   <g id="patch_129">
    <path clip-path="url(#pb43a86f25d)" d="M 375.14507 306.903967 
L 377.690809 306.903967 
L 377.690809 94.992231 
L 375.14507 94.992231 
z
" style="fill:#444488;"/>
   </g>
   <g id="patch_130">
    <path clip-path="url(#pb43a86f25d)" d="M 377.690809 306.903967 
L 380.236547 306.903967 
L 380.236547 159.190159 
L 377.690809 159.190159 
z
" style="fill:#444488;"/>
   </g>
   <g id="patch_131">
    <path clip-path="url(#pb43a86f25d)" d="M 380.236547 306.903967 
L 382.782285 306.903967 
L 382.782285 261.707689 
L 380.236547 261.707689 
z
" style="fill:#444488;"/>
   </g>
   <g id="patch_132">
    <path clip-path="url(#pb43a86f25d)" d="M 382.782285 306.903967 
L 385.328023 306.903967 
L 385.328023 100.053089 
L 382.782285 100.053089 
z
" style="fill:#444488;"/>
   </g>
   <g id="patch_133">
    <path clip-path="url(#pb43a86f25d)" d="M 385.328023 306.903967 
L 387.873761 306.903967 
L 387.873761 139.626192 
L 385.328023 139.626192 
z
" style="fill:#444488;"/>
   </g>
   <g id="patch_134">
    <path clip-path="url(#pb43a86f25d)" d="M 387.873761 306.903967 
L 390.419499 306.903967 
L 390.419499 253.390074 
L 387.873761 253.390074 
z
" style="fill:#444488;"/>
   </g>
   <g id="patch_135">
    <path clip-path="url(#pb43a86f25d)" d="M 390.419499 306.903967 
L 392.965237 306.903967 
L 392.965237 225.332768 
L 390.419499 225.332768 
z
" style="fill:#444488;"/>
   </g>
   <g id="patch_136">
    <path clip-path="url(#pb43a86f25d)" d="M 392.965237 306.903967 
L 395.510975 306.903967 
L 395.510975 172.562774 
L 392.965237 172.562774 
z
" style="fill:#444488;"/>
   </g>
   <g id="patch_137">
    <path clip-path="url(#pb43a86f25d)" d="M 395.510975 306.903967 
L 398.056714 306.903967 
L 398.056714 272.743172 
L 395.510975 272.743172 
z
" style="fill:#444488;"/>
   </g>
   <g id="patch_138">
    <path clip-path="url(#pb43a86f25d)" d="M 398.056714 306.903967 
L 400.602452 306.903967 
L 400.602452 138.91158 
L 398.056714 138.91158 
z
" style="fill:#444488;"/>
   </g>
   <g id="patch_139">
    <path clip-path="url(#pb43a86f25d)" d="M 400.602452 306.903967 
L 403.14819 306.903967 
L 403.14819 285.278169 
L 400.602452 285.278169 
z
" style="fill:#444488;"/>
   </g>
   <g id="patch_140">
    <path clip-path="url(#pb43a86f25d)" d="M 403.14819 306.903967 
L 405.693928 306.903967 
L 405.693928 230.182758 
L 403.14819 230.182758 
z
" style="fill:#444488;"/>
   </g>
   <g id="patch_141">
    <path clip-path="url(#pb43a86f25d)" d="M 405.693928 306.903967 
L 408.239666 306.903967 
L 408.239666 290.268738 
L 405.693928 290.268738 
z
" style="fill:#444488;"/>
   </g>
   <g id="patch_142">
    <path clip-path="url(#pb43a86f25d)" d="M 408.239666 306.903967 
L 410.785404 306.903967 
L 410.785404 262.293437 
L 408.239666 262.293437 
z
" style="fill:#444488;"/>
   </g>
   <g id="patch_143">
    <path clip-path="url(#pb43a86f25d)" d="M 410.785404 306.903967 
L 413.331142 306.903967 
L 413.331142 287.668019 
L 410.785404 287.668019 
z
" style="fill:#444488;"/>
   </g>
   <g id="patch_144">
    <path clip-path="url(#pb43a86f25d)" d="M 413.331142 306.903967 
L 415.876881 306.903967 
L 415.876881 97.768674 
L 413.331142 97.768674 
z
" style="fill:#444488;"/>
   </g>
   <g id="patch_145">
    <path clip-path="url(#pb43a86f25d)" d="M 415.876881 306.903967 
L 418.422619 306.903967 
L 418.422619 306.903967 
L 415.876881 306.903967 
z
" style="fill:#444488;"/>
   </g>
   <g id="patch_146">
    <path clip-path="url(#pb43a86f25d)" d="M 418.422619 306.903967 
L 420.968357 306.903967 
L 420.968357 271.712257 
L 418.422619 271.712257 
z
" style="fill:#444488;"/>
   </g>
   <g id="patch_147">
    <path clip-path="url(#pb43a86f25d)" d="M 420.968357 306.903967 
L 423.514095 306.903967 
L 423.514095 306.903967 
L 420.968357 306.903967 
z
" style="fill:#444488;"/>
   </g>
   <g id="patch_148">
    <path clip-path="url(#pb43a86f25d)" d="M 423.514095 306.903967 
L 426.059833 306.903967 
L 426.059833 258.521223 
L 423.514095 258.521223 
z
" style="fill:#444488;"/>
   </g>
   <g id="patch_149">
    <path clip-path="url(#pb43a86f25d)" d="M 426.059833 306.903967 
L 428.605571 306.903967 
L 428.605571 306.903967 
L 426.059833 306.903967 
z
" style="fill:#444488;"/>
   </g>
   <g id="patch_150">
    <path clip-path="url(#pb43a86f25d)" d="M 428.605571 306.903967 
L 431.151309 306.903967 
L 431.151309 306.903967 
L 428.605571 306.903967 
z
" style="fill:#444488;"/>
   </g>
   <g id="patch_151">
    <path clip-path="url(#pb43a86f25d)" d="M 431.151309 306.903967 
L 433.697047 306.903967 
L 433.697047 306.903967 
L 431.151309 306.903967 
z
" style="fill:#444488;"/>
   </g>
   <g id="patch_152">
    <path clip-path="url(#pb43a86f25d)" d="M 433.697047 306.903967 
L 436.242786 306.903967 
L 436.242786 265.269034 
L 433.697047 265.269034 
z
" style="fill:#444488;"/>
   </g>
   <g id="matplotlib.axis_1">
    <g id="xtick_1">
     <g id="line2d_1">
      <defs>
       <path d="M 0 0 
L 0 3.5 
" id="m2f7f495da4" style="stroke:#000000;stroke-width:0.8;"/>
      </defs>
      <g>
       <use style="stroke:#000000;stroke-width:0.8;" x="93.080203" xlink:href="#m2f7f495da4" y="306.903967"/>
      </g>
     </g>
     <g id="text_1">
      <!-- 5 -->
      <defs>
       <path d="M 14.59375 58.625 
L 39.09375 58.625 
L 39.09375 65 
L 7.296875 65 
L 7.296875 27.828125 
L 14 27.828125 
C 15.796875 31.96875 19.5 35 24.296875 35 
C 28.796875 35 33.796875 31.078125 33.796875 19.78125 
C 33.796875 7.703125 26.703125 4.171875 21.5 4.171875 
C 15.09375 4.171875 9.203125 8 6.59375 13.296875 
L 3.40625 7.796875 
C 8 0.765625 15.5 -2 21.5 -2 
C 33.09375 -2 42.203125 7.765625 42.203125 19.578125 
C 42.203125 31.71875 34.09375 41.078125 24.40625 41.078125 
C 20.90625 41.078125 17.5 39.890625 14.59375 37.484375 
z
" id="CMSS17-53"/>
      </defs>
      <g transform="translate(89.17821 324.973556)scale(0.16 -0.16)">
       <use transform="scale(0.996264)" xlink:href="#CMSS17-53"/>
      </g>
     </g>
    </g>
    <g id="xtick_2">
     <g id="line2d_2">
      <g>
       <use style="stroke:#000000;stroke-width:0.8;" x="167.439503" xlink:href="#m2f7f495da4" y="306.903967"/>
      </g>
     </g>
     <g id="text_2">
      <!-- 10 -->
      <defs>
       <path d="M 28.40625 67 
L 26.5 67 
C 21.09375 61.5625 14.796875 60.78125 8.40625 60.78125 
L 8.40625 55 
C 11.296875 55 16 55 20.703125 57.296875 
L 20.703125 5.765625 
L 8.90625 5.765625 
L 8.90625 0 
L 40.203125 0 
L 40.203125 5.765625 
L 28.40625 5.765625 
z
" id="CMSS17-49"/>
       <path d="M 43.09375 31.9375 
C 43.09375 37.578125 43 48.078125 38.90625 56.1875 
C 34.796875 64 28.203125 66.078125 23.5 66.078125 
C 16.703125 66.078125 10.90625 62.109375 7.90625 55.78125 
C 4.703125 49.15625 3.796875 42.328125 3.796875 31.9375 
C 3.796875 24.828125 4.09375 16.109375 7.703125 8.484375 
C 11.796875 0.078125 18.703125 -2 23.40625 -2 
C 29.59375 -2 35.59375 1.265625 39 8.09375 
C 42.5 15.21875 43.09375 23.03125 43.09375 31.9375 
z
M 23.40625 4.078125 
C 15.796875 4.078125 13.5 12.671875 12.796875 15.546875 
C 11.59375 20.46875 11.40625 25.21875 11.40625 33.03125 
C 11.40625 39.15625 11.40625 46.0625 13.296875 51.515625 
C 15.59375 57.828125 19.59375 60 23.40625 60 
C 30.796875 60 33.203125 52.6875 34 50.125 
C 35.5 44.890625 35.5 38.765625 35.5 33.03125 
C 35.5 23.84375 35.5 4.078125 23.40625 4.078125 
z
" id="CMSS17-48"/>
      </defs>
      <g transform="translate(159.635516 324.973556)scale(0.16 -0.16)">
       <use transform="scale(0.996264)" xlink:href="#CMSS17-49"/>
       <use transform="translate(46.843624 0)scale(0.996264)" xlink:href="#CMSS17-48"/>
      </g>
     </g>
    </g>
    <g id="xtick_3">
     <g id="line2d_3">
      <g>
       <use style="stroke:#000000;stroke-width:0.8;" x="241.798803" xlink:href="#m2f7f495da4" y="306.903967"/>
      </g>
     </g>
     <g id="text_3">
      <!-- 15 -->
      <g transform="translate(233.994816 324.973556)scale(0.16 -0.16)">
       <use transform="scale(0.996264)" xlink:href="#CMSS17-49"/>
       <use transform="translate(46.843624 0)scale(0.996264)" xlink:href="#CMSS17-53"/>
      </g>
     </g>
    </g>
    <g id="xtick_4">
     <g id="line2d_4">
      <g>
       <use style="stroke:#000000;stroke-width:0.8;" x="316.158104" xlink:href="#m2f7f495da4" y="306.903967"/>
      </g>
     </g>
     <g id="text_4">
      <!-- 20 -->
      <defs>
       <path d="M 25.796875 21.203125 
C 28.59375 24.078125 32.796875 27.5625 35.703125 31.046875 
C 38.5 34.4375 42.203125 39.234375 42.203125 46.203125 
C 42.203125 57.140625 34.796875 67 22.203125 67 
C 12.296875 67 6.59375 60.828125 3.90625 51.15625 
L 7.796875 45.765625 
C 10 54.84375 13.09375 60.625 20.90625 60.625 
C 29.5 60.625 34.296875 53.640625 34.296875 45.96875 
C 34.296875 36.796875 27.296875 29.703125 22 24.421875 
C 16.09375 18.546875 10.296875 12.5625 4.703125 6.375 
L 4.703125 0 
L 42.203125 0 
L 42.203125 6.765625 
L 25.203125 6.765625 
C 24 6.765625 22.796875 6.765625 21.59375 6.765625 
L 11.59375 6.765625 
L 11.59375 6.859375 
z
" id="CMSS17-50"/>
      </defs>
      <g transform="translate(308.354117 324.973556)scale(0.16 -0.16)">
       <use transform="scale(0.996264)" xlink:href="#CMSS17-50"/>
       <use transform="translate(46.843624 0)scale(0.996264)" xlink:href="#CMSS17-48"/>
      </g>
     </g>
    </g>
    <g id="xtick_5">
     <g id="line2d_5">
      <g>
       <use style="stroke:#000000;stroke-width:0.8;" x="390.517404" xlink:href="#m2f7f495da4" y="306.903967"/>
      </g>
     </g>
     <g id="text_5">
      <!-- 25 -->
      <g transform="translate(382.713417 324.973556)scale(0.16 -0.16)">
       <use transform="scale(0.996264)" xlink:href="#CMSS17-50"/>
       <use transform="translate(46.843624 0)scale(0.996264)" xlink:href="#CMSS17-53"/>
      </g>
     </g>
    </g>
    <g id="xtick_6">
     <g id="line2d_6">
      <defs>
       <path d="M 0 0 
L 0 2 
" id="m4eaad643b4" style="stroke:#000000;stroke-width:0.6;"/>
      </defs>
      <g>
       <use style="stroke:#000000;stroke-width:0.6;" x="48.464623" xlink:href="#m4eaad643b4" y="306.903967"/>
      </g>
     </g>
    </g>
    <g id="xtick_7">
     <g id="line2d_7">
      <g>
       <use style="stroke:#000000;stroke-width:0.6;" x="63.336483" xlink:href="#m4eaad643b4" y="306.903967"/>
      </g>
     </g>
    </g>
    <g id="xtick_8">
     <g id="line2d_8">
      <g>
       <use style="stroke:#000000;stroke-width:0.6;" x="78.208343" xlink:href="#m4eaad643b4" y="306.903967"/>
      </g>
     </g>
    </g>
    <g id="xtick_9">
     <g id="line2d_9">
      <g>
       <use style="stroke:#000000;stroke-width:0.6;" x="107.952063" xlink:href="#m4eaad643b4" y="306.903967"/>
      </g>
     </g>
    </g>
    <g id="xtick_10">
     <g id="line2d_10">
      <g>
       <use style="stroke:#000000;stroke-width:0.6;" x="122.823923" xlink:href="#m4eaad643b4" y="306.903967"/>
      </g>
     </g>
    </g>
    <g id="xtick_11">
     <g id="line2d_11">
      <g>
       <use style="stroke:#000000;stroke-width:0.6;" x="137.695783" xlink:href="#m4eaad643b4" y="306.903967"/>
      </g>
     </g>
    </g>
    <g id="xtick_12">
     <g id="line2d_12">
      <g>
       <use style="stroke:#000000;stroke-width:0.6;" x="152.567643" xlink:href="#m4eaad643b4" y="306.903967"/>
      </g>
     </g>
    </g>
    <g id="xtick_13">
     <g id="line2d_13">
      <g>
       <use style="stroke:#000000;stroke-width:0.6;" x="182.311363" xlink:href="#m4eaad643b4" y="306.903967"/>
      </g>
     </g>
    </g>
    <g id="xtick_14">
     <g id="line2d_14">
      <g>
       <use style="stroke:#000000;stroke-width:0.6;" x="197.183223" xlink:href="#m4eaad643b4" y="306.903967"/>
      </g>
     </g>
    </g>
    <g id="xtick_15">
     <g id="line2d_15">
      <g>
       <use style="stroke:#000000;stroke-width:0.6;" x="212.055083" xlink:href="#m4eaad643b4" y="306.903967"/>
      </g>
     </g>
    </g>
    <g id="xtick_16">
     <g id="line2d_16">
      <g>
       <use style="stroke:#000000;stroke-width:0.6;" x="226.926943" xlink:href="#m4eaad643b4" y="306.903967"/>
      </g>
     </g>
    </g>
    <g id="xtick_17">
     <g id="line2d_17">
      <g>
       <use style="stroke:#000000;stroke-width:0.6;" x="256.670663" xlink:href="#m4eaad643b4" y="306.903967"/>
      </g>
     </g>
    </g>
    <g id="xtick_18">
     <g id="line2d_18">
      <g>
       <use style="stroke:#000000;stroke-width:0.6;" x="271.542523" xlink:href="#m4eaad643b4" y="306.903967"/>
      </g>
     </g>
    </g>
    <g id="xtick_19">
     <g id="line2d_19">
      <g>
       <use style="stroke:#000000;stroke-width:0.6;" x="286.414384" xlink:href="#m4eaad643b4" y="306.903967"/>
      </g>
     </g>
    </g>
    <g id="xtick_20">
     <g id="line2d_20">
      <g>
       <use style="stroke:#000000;stroke-width:0.6;" x="301.286244" xlink:href="#m4eaad643b4" y="306.903967"/>
      </g>
     </g>
    </g>
    <g id="xtick_21">
     <g id="line2d_21">
      <g>
       <use style="stroke:#000000;stroke-width:0.6;" x="331.029964" xlink:href="#m4eaad643b4" y="306.903967"/>
      </g>
     </g>
    </g>
    <g id="xtick_22">
     <g id="line2d_22">
      <g>
       <use style="stroke:#000000;stroke-width:0.6;" x="345.901824" xlink:href="#m4eaad643b4" y="306.903967"/>
      </g>
     </g>
    </g>
    <g id="xtick_23">
     <g id="line2d_23">
      <g>
       <use style="stroke:#000000;stroke-width:0.6;" x="360.773684" xlink:href="#m4eaad643b4" y="306.903967"/>
      </g>
     </g>
    </g>
    <g id="xtick_24">
     <g id="line2d_24">
      <g>
       <use style="stroke:#000000;stroke-width:0.6;" x="375.645544" xlink:href="#m4eaad643b4" y="306.903967"/>
      </g>
     </g>
    </g>
    <g id="xtick_25">
     <g id="line2d_25">
      <g>
       <use style="stroke:#000000;stroke-width:0.6;" x="405.389264" xlink:href="#m4eaad643b4" y="306.903967"/>
      </g>
     </g>
    </g>
    <g id="xtick_26">
     <g id="line2d_26">
      <g>
       <use style="stroke:#000000;stroke-width:0.6;" x="420.261124" xlink:href="#m4eaad643b4" y="306.903967"/>
      </g>
     </g>
    </g>
    <g id="xtick_27">
     <g id="line2d_27">
      <g>
       <use style="stroke:#000000;stroke-width:0.6;" x="435.132984" xlink:href="#m4eaad643b4" y="306.903967"/>
      </g>
     </g>
    </g>
   </g>
   <g id="matplotlib.axis_2">
    <g id="ytick_1">
     <g id="line2d_28">
      <defs>
       <path d="M 0 0 
L -3.5 0 
" id="m1765bef916" style="stroke:#000000;stroke-width:0.8;"/>
      </defs>
      <g>
       <use style="stroke:#000000;stroke-width:0.8;" x="36.744851" xlink:href="#m1765bef916" y="306.903967"/>
      </g>
     </g>
     <g id="text_6">
      <!-- 0 -->
      <g transform="translate(21.940864 312.438762)scale(0.16 -0.16)">
       <use transform="scale(0.996264)" xlink:href="#CMSS17-48"/>
      </g>
     </g>
    </g>
    <g id="ytick_2">
     <g id="line2d_29">
      <g>
       <use style="stroke:#000000;stroke-width:0.8;" x="36.744851" xlink:href="#m1765bef916" y="248.329216"/>
      </g>
     </g>
     <g id="text_7">
      <!-- 2e4 -->
      <defs>
       <path d="M 39.09375 21.515625 
C 39.09375 24.84375 38.90625 31.296875 35.703125 36.640625 
C 32.203125 42.390625 26.5 44 22.203125 44 
C 11.796875 44 3 34.1875 3 21.484375 
C 3 9.09375 12.09375 -1 23.59375 -1 
C 28.09375 -1 33.59375 0.296875 38.59375 3.875 
C 38.59375 4.28125 38.40625 6.46875 38.296875 6.5625 
C 38.296875 6.765625 38 9.84375 38 10.25 
C 33.203125 6.359375 27.703125 5.078125 23.703125 5.078125 
C 17.296875 5.078125 10.40625 10.421875 10.09375 21.515625 
z
M 10.90625 27 
C 12.203125 32.5625 16.59375 37.828125 22.203125 37.828125 
C 23.703125 37.828125 30.703125 37.828125 32.5 27 
z
" id="CMSS17-101"/>
       <path d="M 35.203125 17 
L 44.296875 17 
L 44.296875 23.078125 
L 35.203125 23.078125 
L 35.203125 65.5 
L 26.40625 65.5 
L 2.59375 23.078125 
L 2.59375 17 
L 27.296875 17 
L 27.296875 0 
L 35.203125 0 
z
M 10.296875 23.078125 
C 16.09375 33.234375 27.59375 53.734375 27.59375 60.703125 
L 27.59375 23.078125 
z
" id="CMSS17-52"/>
      </defs>
      <g transform="translate(7.2 253.86401)scale(0.16 -0.16)">
       <use transform="scale(0.996264)" xlink:href="#CMSS17-50"/>
       <use transform="translate(46.843624 0)scale(0.996264)" xlink:href="#CMSS17-101"/>
       <use transform="translate(88.482446 0)scale(0.996264)" xlink:href="#CMSS17-52"/>
      </g>
     </g>
    </g>
    <g id="ytick_3">
     <g id="line2d_30">
      <g>
       <use style="stroke:#000000;stroke-width:0.8;" x="36.744851" xlink:href="#m1765bef916" y="189.754464"/>
      </g>
     </g>
     <g id="text_8">
      <!-- 4e4 -->
      <g transform="translate(7.2 195.289258)scale(0.16 -0.16)">
       <use transform="scale(0.996264)" xlink:href="#CMSS17-52"/>
       <use transform="translate(46.843624 0)scale(0.996264)" xlink:href="#CMSS17-101"/>
       <use transform="translate(88.482446 0)scale(0.996264)" xlink:href="#CMSS17-52"/>
      </g>
     </g>
    </g>
    <g id="ytick_4">
     <g id="line2d_31">
      <g>
       <use style="stroke:#000000;stroke-width:0.8;" x="36.744851" xlink:href="#m1765bef916" y="131.179712"/>
      </g>
     </g>
     <g id="text_9">
      <!-- 6e4 -->
      <defs>
       <path d="M 39 64.078125 
C 34.796875 65.78125 31.796875 66.078125 29 66.078125 
C 16 66.078125 3.90625 52.625 3.90625 31.34375 
C 3.90625 4.140625 15.40625 -2 23.59375 -2 
C 28.09375 -2 32.59375 -0.609375 36.90625 4.375 
C 41.296875 9.640625 43 14.03125 43 21.703125 
C 43 34.046875 36.90625 45 27.796875 45 
C 21.203125 45 15.5 41.515625 12 37.125 
C 13 50.90625 19.59375 60 29.09375 60 
C 31.703125 60 35.09375 59.625 39 57.96875 
z
M 12.09375 21.390625 
C 12.09375 22.1875 12.09375 22.6875 12.203125 24.1875 
C 12.203125 31.953125 16.703125 38.921875 24 38.921875 
C 28.703125 38.921875 31.09375 36.4375 32.90625 33.359375 
C 35 29.46875 35.09375 25.78125 35.09375 21.6875 
C 35.09375 17.8125 35.09375 13.921875 32.796875 9.953125 
C 30.90625 6.859375 28.40625 4.171875 23.59375 4.171875 
C 14.09375 4.171875 12.5 17.40625 12.09375 21.390625 
z
" id="CMSS17-54"/>
      </defs>
      <g transform="translate(7.2 136.714506)scale(0.16 -0.16)">
       <use transform="scale(0.996264)" xlink:href="#CMSS17-54"/>
       <use transform="translate(46.843624 0)scale(0.996264)" xlink:href="#CMSS17-101"/>
       <use transform="translate(88.482446 0)scale(0.996264)" xlink:href="#CMSS17-52"/>
      </g>
     </g>
    </g>
    <g id="ytick_5">
     <g id="line2d_32">
      <g>
       <use style="stroke:#000000;stroke-width:0.8;" x="36.744851" xlink:href="#m1765bef916" y="72.604961"/>
      </g>
     </g>
     <g id="text_10">
      <!-- 8e4 -->
      <defs>
       <path d="M 30.203125 34.71875 
C 37.796875 37.1875 41.703125 43.125 41.703125 48.96875 
C 41.703125 58.15625 33.703125 66.078125 23.5 66.078125 
C 12.90625 66.078125 5.203125 57.9375 5.203125 49.125 
C 5.203125 43.4375 9 37.546875 16.703125 35.015625 
C 6.90625 31.203125 3.90625 23.625 3.90625 17.953125 
C 3.90625 6.96875 12.796875 -2 23.40625 -2 
C 34.40625 -2 43 7.109375 43 17.78125 
C 43 24.328125 39.09375 31.25 30.203125 34.71875 
z
M 23.5 38 
C 16.796875 38 12.296875 42.375 12.296875 49 
C 12.296875 55.71875 16.796875 60 23.5 60 
C 29.703125 60 34.59375 56.109375 34.59375 49 
C 34.59375 41.984375 29.796875 38 23.5 38 
z
M 23.5 4.171875 
C 17.796875 4.171875 11.703125 8.078125 11.703125 18.0625 
C 11.703125 28.328125 18.5 31.921875 23.40625 31.921875 
C 28.796875 31.921875 35.203125 28.125 35.203125 18.0625 
C 35.203125 7.671875 28.59375 4.171875 23.5 4.171875 
z
" id="CMSS17-56"/>
      </defs>
      <g transform="translate(7.2 78.139755)scale(0.16 -0.16)">
       <use transform="scale(0.996264)" xlink:href="#CMSS17-56"/>
       <use transform="translate(46.843624 0)scale(0.996264)" xlink:href="#CMSS17-101"/>
       <use transform="translate(88.482446 0)scale(0.996264)" xlink:href="#CMSS17-52"/>
      </g>
     </g>
    </g>
    <g id="ytick_6">
     <g id="line2d_33">
      <g>
       <use style="stroke:#000000;stroke-width:0.8;" x="36.744851" xlink:href="#m1765bef916" y="14.030209"/>
      </g>
     </g>
     <g id="text_11">
      <!-- 1e5 -->
      <g transform="translate(7.2 19.565003)scale(0.16 -0.16)">
       <use transform="scale(0.996264)" xlink:href="#CMSS17-49"/>
       <use transform="translate(46.843624 0)scale(0.996264)" xlink:href="#CMSS17-101"/>
       <use transform="translate(88.482446 0)scale(0.996264)" xlink:href="#CMSS17-53"/>
      </g>
     </g>
    </g>
    <g id="ytick_7">
     <g id="line2d_34">
      <defs>
       <path d="M 0 0 
L -2 0 
" id="m54a79c5df7" style="stroke:#000000;stroke-width:0.6;"/>
      </defs>
      <g>
       <use style="stroke:#000000;stroke-width:0.6;" x="36.744851" xlink:href="#m54a79c5df7" y="292.26028"/>
      </g>
     </g>
    </g>
    <g id="ytick_8">
     <g id="line2d_35">
      <g>
       <use style="stroke:#000000;stroke-width:0.6;" x="36.744851" xlink:href="#m54a79c5df7" y="277.616592"/>
      </g>
     </g>
    </g>
    <g id="ytick_9">
     <g id="line2d_36">
      <g>
       <use style="stroke:#000000;stroke-width:0.6;" x="36.744851" xlink:href="#m54a79c5df7" y="262.972904"/>
      </g>
     </g>
    </g>
    <g id="ytick_10">
     <g id="line2d_37">
      <g>
       <use style="stroke:#000000;stroke-width:0.6;" x="36.744851" xlink:href="#m54a79c5df7" y="233.685528"/>
      </g>
     </g>
    </g>
    <g id="ytick_11">
     <g id="line2d_38">
      <g>
       <use style="stroke:#000000;stroke-width:0.6;" x="36.744851" xlink:href="#m54a79c5df7" y="219.04184"/>
      </g>
     </g>
    </g>
    <g id="ytick_12">
     <g id="line2d_39">
      <g>
       <use style="stroke:#000000;stroke-width:0.6;" x="36.744851" xlink:href="#m54a79c5df7" y="204.398152"/>
      </g>
     </g>
    </g>
    <g id="ytick_13">
     <g id="line2d_40">
      <g>
       <use style="stroke:#000000;stroke-width:0.6;" x="36.744851" xlink:href="#m54a79c5df7" y="175.110776"/>
      </g>
     </g>
    </g>
    <g id="ytick_14">
     <g id="line2d_41">
      <g>
       <use style="stroke:#000000;stroke-width:0.6;" x="36.744851" xlink:href="#m54a79c5df7" y="160.467088"/>
      </g>
     </g>
    </g>
    <g id="ytick_15">
     <g id="line2d_42">
      <g>
       <use style="stroke:#000000;stroke-width:0.6;" x="36.744851" xlink:href="#m54a79c5df7" y="145.8234"/>
      </g>
     </g>
    </g>
    <g id="ytick_16">
     <g id="line2d_43">
      <g>
       <use style="stroke:#000000;stroke-width:0.6;" x="36.744851" xlink:href="#m54a79c5df7" y="116.536024"/>
      </g>
     </g>
    </g>
    <g id="ytick_17">
     <g id="line2d_44">
      <g>
       <use style="stroke:#000000;stroke-width:0.6;" x="36.744851" xlink:href="#m54a79c5df7" y="101.892336"/>
      </g>
     </g>
    </g>
    <g id="ytick_18">
     <g id="line2d_45">
      <g>
       <use style="stroke:#000000;stroke-width:0.6;" x="36.744851" xlink:href="#m54a79c5df7" y="87.248649"/>
      </g>
     </g>
    </g>
    <g id="ytick_19">
     <g id="line2d_46">
      <g>
       <use style="stroke:#000000;stroke-width:0.6;" x="36.744851" xlink:href="#m54a79c5df7" y="57.961273"/>
      </g>
     </g>
    </g>
    <g id="ytick_20">
     <g id="line2d_47">
      <g>
       <use style="stroke:#000000;stroke-width:0.6;" x="36.744851" xlink:href="#m54a79c5df7" y="43.317585"/>
      </g>
     </g>
    </g>
    <g id="ytick_21">
     <g id="line2d_48">
      <g>
       <use style="stroke:#000000;stroke-width:0.6;" x="36.744851" xlink:href="#m54a79c5df7" y="28.673897"/>
      </g>
     </g>
    </g>
   </g>
   <g id="patch_153">
    <path d="M 36.744851 312.711888 
L 36.744851 10.7 
" style="fill:none;stroke:#000000;stroke-linecap:square;stroke-linejoin:miter;stroke-width:0.8;"/>
   </g>
   <g id="patch_154">
    <path d="M 46.744851 306.903967 
L 443.88 306.903967 
" style="fill:none;stroke:#000000;stroke-linecap:square;stroke-linejoin:miter;stroke-width:0.8;"/>
   </g>
  </g>
 </g>
 <defs>
  <clipPath id="pb43a86f25d">
   <rect height="302.011888" width="397.135149" x="46.744851" y="10.7"/>
  </clipPath>
 </defs>
</svg>
