<?xml version="1.0" encoding="utf-8" standalone="no"?>
<!DOCTYPE svg PUBLIC "-//W3C//DTD SVG 1.1//EN"
  "http://www.w3.org/Graphics/SVG/1.1/DTD/svg11.dtd">
<!-- Created with matplotlib (http://matplotlib.org/) -->
<svg height="338.143403pt" version="1.1" viewBox="0 0 454.55875 338.143403" width="454.55875pt" xmlns="http://www.w3.org/2000/svg" xmlns:xlink="http://www.w3.org/1999/xlink">
 <defs>
  <style type="text/css">
*{stroke-linecap:butt;stroke-linejoin:round;}
  </style>
 </defs>
 <g id="figure_1">
  <g id="patch_1">
   <path d="M 0 338.143403 
L 454.55875 338.143403 
L 454.55875 0 
L 0 0 
z
" style="fill:#ffffff;"/>
  </g>
  <g id="axes_1">
   <g id="patch_2">
    <path d="M 52.61875 320.217538 
L 443.85875 320.217538 
L 443.85875 10.7 
L 52.61875 10.7 
z
" style="fill:#ffffff;"/>
   </g>
   <g id="patch_3">
    <path clip-path="url(#pbbac1d0228)" d="M 60.142596 314.265278 
L 63.904519 314.265278 
L 63.904519 312.37757 
L 60.142596 312.37757 
z
" style="fill:#1f77b4;stroke:#000000;stroke-linejoin:miter;"/>
   </g>
   <g id="patch_4">
    <path clip-path="url(#pbbac1d0228)" d="M 63.904519 314.265278 
L 67.666442 314.265278 
L 67.666442 312.140141 
L 63.904519 312.140141 
z
" style="fill:#1f77b4;stroke:#000000;stroke-linejoin:miter;"/>
   </g>
   <g id="patch_5">
    <path clip-path="url(#pbbac1d0228)" d="M 67.666442 314.265278 
L 71.428365 314.265278 
L 71.428365 310.671598 
L 67.666442 310.671598 
z
" style="fill:#1f77b4;stroke:#000000;stroke-linejoin:miter;"/>
   </g>
   <g id="patch_6">
    <path clip-path="url(#pbbac1d0228)" d="M 71.428365 314.265278 
L 75.190288 314.265278 
L 75.190288 308.679831 
L 71.428365 308.679831 
z
" style="fill:#1f77b4;stroke:#000000;stroke-linejoin:miter;"/>
   </g>
   <g id="patch_7">
    <path clip-path="url(#pbbac1d0228)" d="M 75.190288 314.265278 
L 78.952212 314.265278 
L 78.952212 306.088629 
L 75.190288 306.088629 
z
" style="fill:#1f77b4;stroke:#000000;stroke-linejoin:miter;"/>
   </g>
   <g id="patch_8">
    <path clip-path="url(#pbbac1d0228)" d="M 78.952212 314.265278 
L 82.714135 314.265278 
L 82.714135 302.264848 
L 78.952212 302.264848 
z
" style="fill:#1f77b4;stroke:#000000;stroke-linejoin:miter;"/>
   </g>
   <g id="patch_9">
    <path clip-path="url(#pbbac1d0228)" d="M 82.714135 314.265278 
L 86.476058 314.265278 
L 86.476058 297.670154 
L 82.714135 297.670154 
z
" style="fill:#1f77b4;stroke:#000000;stroke-linejoin:miter;"/>
   </g>
   <g id="patch_10">
    <path clip-path="url(#pbbac1d0228)" d="M 86.476058 314.265278 
L 90.237981 314.265278 
L 90.237981 291.823828 
L 86.476058 291.823828 
z
" style="fill:#1f77b4;stroke:#000000;stroke-linejoin:miter;"/>
   </g>
   <g id="patch_11">
    <path clip-path="url(#pbbac1d0228)" d="M 90.237981 314.265278 
L 93.999904 314.265278 
L 93.999904 284.037032 
L 90.237981 284.037032 
z
" style="fill:#1f77b4;stroke:#000000;stroke-linejoin:miter;"/>
   </g>
   <g id="patch_12">
    <path clip-path="url(#pbbac1d0228)" d="M 93.999904 314.265278 
L 97.761827 314.265278 
L 97.761827 274.834455 
L 93.999904 274.834455 
z
" style="fill:#1f77b4;stroke:#000000;stroke-linejoin:miter;"/>
   </g>
   <g id="patch_13">
    <path clip-path="url(#pbbac1d0228)" d="M 97.761827 314.265278 
L 101.52375 314.265278 
L 101.52375 263.862884 
L 97.761827 263.862884 
z
" style="fill:#1f77b4;stroke:#000000;stroke-linejoin:miter;"/>
   </g>
   <g id="patch_14">
    <path clip-path="url(#pbbac1d0228)" d="M 101.52375 314.265278 
L 105.285673 314.265278 
L 105.285673 250.23709 
L 101.52375 250.23709 
z
" style="fill:#1f77b4;stroke:#000000;stroke-linejoin:miter;"/>
   </g>
   <g id="patch_15">
    <path clip-path="url(#pbbac1d0228)" d="M 105.285673 314.265278 
L 109.047596 314.265278 
L 109.047596 234.843768 
L 105.285673 234.843768 
z
" style="fill:#1f77b4;stroke:#000000;stroke-linejoin:miter;"/>
   </g>
   <g id="patch_16">
    <path clip-path="url(#pbbac1d0228)" d="M 109.047596 314.265278 
L 112.809519 314.265278 
L 112.809519 217.901295 
L 109.047596 217.901295 
z
" style="fill:#1f77b4;stroke:#000000;stroke-linejoin:miter;"/>
   </g>
   <g id="patch_17">
    <path clip-path="url(#pbbac1d0228)" d="M 112.809519 314.265278 
L 116.571442 314.265278 
L 116.571442 199.633908 
L 112.809519 199.633908 
z
" style="fill:#1f77b4;stroke:#000000;stroke-linejoin:miter;"/>
   </g>
   <g id="patch_18">
    <path clip-path="url(#pbbac1d0228)" d="M 116.571442 314.265278 
L 120.333365 314.265278 
L 120.333365 177.80655 
L 116.571442 177.80655 
z
" style="fill:#1f77b4;stroke:#000000;stroke-linejoin:miter;"/>
   </g>
   <g id="patch_19">
    <path clip-path="url(#pbbac1d0228)" d="M 120.333365 314.265278 
L 124.095288 314.265278 
L 124.095288 157.528343 
L 120.333365 157.528343 
z
" style="fill:#1f77b4;stroke:#000000;stroke-linejoin:miter;"/>
   </g>
   <g id="patch_20">
    <path clip-path="url(#pbbac1d0228)" d="M 124.095288 314.265278 
L 127.857212 314.265278 
L 127.857212 134.735147 
L 124.095288 134.735147 
z
" style="fill:#1f77b4;stroke:#000000;stroke-linejoin:miter;"/>
   </g>
   <g id="patch_21">
    <path clip-path="url(#pbbac1d0228)" d="M 127.857212 314.265278 
L 131.619135 314.265278 
L 131.619135 112.595613 
L 127.857212 112.595613 
z
" style="fill:#1f77b4;stroke:#000000;stroke-linejoin:miter;"/>
   </g>
   <g id="patch_22">
    <path clip-path="url(#pbbac1d0228)" d="M 131.619135 314.265278 
L 135.381058 314.265278 
L 135.381058 91.870395 
L 131.619135 91.870395 
z
" style="fill:#1f77b4;stroke:#000000;stroke-linejoin:miter;"/>
   </g>
   <g id="patch_23">
    <path clip-path="url(#pbbac1d0228)" d="M 135.381058 314.265278 
L 139.142981 314.265278 
L 139.142981 72.814509 
L 135.381058 72.814509 
z
" style="fill:#1f77b4;stroke:#000000;stroke-linejoin:miter;"/>
   </g>
   <g id="patch_24">
    <path clip-path="url(#pbbac1d0228)" d="M 139.142981 314.265278 
L 142.904904 314.265278 
L 142.904904 55.493907 
L 139.142981 55.493907 
z
" style="fill:#1f77b4;stroke:#000000;stroke-linejoin:miter;"/>
   </g>
   <g id="patch_25">
    <path clip-path="url(#pbbac1d0228)" d="M 142.904904 314.265278 
L 146.666827 314.265278 
L 146.666827 39.910056 
L 142.904904 39.910056 
z
" style="fill:#1f77b4;stroke:#000000;stroke-linejoin:miter;"/>
   </g>
   <g id="patch_26">
    <path clip-path="url(#pbbac1d0228)" d="M 146.666827 314.265278 
L 150.42875 314.265278 
L 150.42875 27.352693 
L 146.666827 27.352693 
z
" style="fill:#1f77b4;stroke:#000000;stroke-linejoin:miter;"/>
   </g>
   <g id="patch_27">
    <path clip-path="url(#pbbac1d0228)" d="M 150.42875 314.265278 
L 154.190673 314.265278 
L 154.190673 21.222038 
L 150.42875 21.222038 
z
" style="fill:#1f77b4;stroke:#000000;stroke-linejoin:miter;"/>
   </g>
   <g id="patch_28">
    <path clip-path="url(#pbbac1d0228)" d="M 154.190673 314.265278 
L 157.952596 314.265278 
L 157.952596 18.218999 
L 154.190673 18.218999 
z
" style="fill:#1f77b4;stroke:#000000;stroke-linejoin:miter;"/>
   </g>
   <g id="patch_29">
    <path clip-path="url(#pbbac1d0228)" d="M 157.952596 314.265278 
L 161.714519 314.265278 
L 161.714519 16.65226 
L 157.952596 16.65226 
z
" style="fill:#1f77b4;stroke:#000000;stroke-linejoin:miter;"/>
   </g>
   <g id="patch_30">
    <path clip-path="url(#pbbac1d0228)" d="M 161.714519 314.265278 
L 165.476442 314.265278 
L 165.476442 21.125308 
L 161.714519 21.125308 
z
" style="fill:#1f77b4;stroke:#000000;stroke-linejoin:miter;"/>
   </g>
   <g id="patch_31">
    <path clip-path="url(#pbbac1d0228)" d="M 165.476442 314.265278 
L 169.238365 314.265278 
L 169.238365 30.7236 
L 165.476442 30.7236 
z
" style="fill:#1f77b4;stroke:#000000;stroke-linejoin:miter;"/>
   </g>
   <g id="patch_32">
    <path clip-path="url(#pbbac1d0228)" d="M 169.238365 314.265278 
L 173.000288 314.265278 
L 173.000288 40.163607 
L 169.238365 40.163607 
z
" style="fill:#1f77b4;stroke:#000000;stroke-linejoin:miter;"/>
   </g>
   <g id="patch_33">
    <path clip-path="url(#pbbac1d0228)" d="M 173.000288 314.265278 
L 176.762212 314.265278 
L 176.762212 54.139682 
L 173.000288 54.139682 
z
" style="fill:#1f77b4;stroke:#000000;stroke-linejoin:miter;"/>
   </g>
   <g id="patch_34">
    <path clip-path="url(#pbbac1d0228)" d="M 176.762212 314.265278 
L 180.524135 314.265278 
L 180.524135 70.627816 
L 176.762212 70.627816 
z
" style="fill:#1f77b4;stroke:#000000;stroke-linejoin:miter;"/>
   </g>
   <g id="patch_35">
    <path clip-path="url(#pbbac1d0228)" d="M 180.524135 314.265278 
L 184.286058 314.265278 
L 184.286058 87.127675 
L 180.524135 87.127675 
z
" style="fill:#1f77b4;stroke:#000000;stroke-linejoin:miter;"/>
   </g>
   <g id="patch_36">
    <path clip-path="url(#pbbac1d0228)" d="M 184.286058 314.265278 
L 188.047981 314.265278 
L 188.047981 107.420537 
L 184.286058 107.420537 
z
" style="fill:#1f77b4;stroke:#000000;stroke-linejoin:miter;"/>
   </g>
   <g id="patch_37">
    <path clip-path="url(#pbbac1d0228)" d="M 188.047981 314.265278 
L 191.809904 314.265278 
L 191.809904 124.848129 
L 188.047981 124.848129 
z
" style="fill:#1f77b4;stroke:#000000;stroke-linejoin:miter;"/>
   </g>
   <g id="patch_38">
    <path clip-path="url(#pbbac1d0228)" d="M 191.809904 314.265278 
L 195.571827 314.265278 
L 195.571827 142.10864 
L 191.809904 142.10864 
z
" style="fill:#1f77b4;stroke:#000000;stroke-linejoin:miter;"/>
   </g>
   <g id="patch_39">
    <path clip-path="url(#pbbac1d0228)" d="M 195.571827 314.265278 
L 199.33375 314.265278 
L 199.33375 160.50207 
L 195.571827 160.50207 
z
" style="fill:#1f77b4;stroke:#000000;stroke-linejoin:miter;"/>
   </g>
   <g id="patch_40">
    <path clip-path="url(#pbbac1d0228)" d="M 199.33375 314.265278 
L 203.095673 314.265278 
L 203.095673 177.349279 
L 199.33375 177.349279 
z
" style="fill:#1f77b4;stroke:#000000;stroke-linejoin:miter;"/>
   </g>
   <g id="patch_41">
    <path clip-path="url(#pbbac1d0228)" d="M 203.095673 314.265278 
L 206.857596 314.265278 
L 206.857596 192.928733 
L 203.095673 192.928733 
z
" style="fill:#1f77b4;stroke:#000000;stroke-linejoin:miter;"/>
   </g>
   <g id="patch_42">
    <path clip-path="url(#pbbac1d0228)" d="M 206.857596 314.265278 
L 210.619519 314.265278 
L 210.619519 207.617096 
L 206.857596 207.617096 
z
" style="fill:#1f77b4;stroke:#000000;stroke-linejoin:miter;"/>
   </g>
   <g id="patch_43">
    <path clip-path="url(#pbbac1d0228)" d="M 210.619519 314.265278 
L 214.381442 314.265278 
L 214.381442 220.873556 
L 210.619519 220.873556 
z
" style="fill:#1f77b4;stroke:#000000;stroke-linejoin:miter;"/>
   </g>
   <g id="patch_44">
    <path clip-path="url(#pbbac1d0228)" d="M 214.381442 314.265278 
L 218.143365 314.265278 
L 218.143365 233.624379 
L 214.381442 233.624379 
z
" style="fill:#1f77b4;stroke:#000000;stroke-linejoin:miter;"/>
   </g>
   <g id="patch_45">
    <path clip-path="url(#pbbac1d0228)" d="M 218.143365 314.265278 
L 221.905288 314.265278 
L 221.905288 244.316018 
L 218.143365 244.316018 
z
" style="fill:#1f77b4;stroke:#000000;stroke-linejoin:miter;"/>
   </g>
   <g id="patch_46">
    <path clip-path="url(#pbbac1d0228)" d="M 221.905288 314.265278 
L 225.667212 314.265278 
L 225.667212 253.814649 
L 221.905288 253.814649 
z
" style="fill:#1f77b4;stroke:#000000;stroke-linejoin:miter;"/>
   </g>
   <g id="patch_47">
    <path clip-path="url(#pbbac1d0228)" d="M 225.667212 314.265278 
L 229.429135 314.265278 
L 229.429135 262.687464 
L 225.667212 262.687464 
z
" style="fill:#1f77b4;stroke:#000000;stroke-linejoin:miter;"/>
   </g>
   <g id="patch_48">
    <path clip-path="url(#pbbac1d0228)" d="M 229.429135 314.265278 
L 233.191058 314.265278 
L 233.191058 269.637395 
L 229.429135 269.637395 
z
" style="fill:#1f77b4;stroke:#000000;stroke-linejoin:miter;"/>
   </g>
   <g id="patch_49">
    <path clip-path="url(#pbbac1d0228)" d="M 233.191058 314.265278 
L 236.952981 314.265278 
L 236.952981 275.904352 
L 233.191058 275.904352 
z
" style="fill:#1f77b4;stroke:#000000;stroke-linejoin:miter;"/>
   </g>
   <g id="patch_50">
    <path clip-path="url(#pbbac1d0228)" d="M 236.952981 314.265278 
L 240.714904 314.265278 
L 240.714904 281.45609 
L 236.952981 281.45609 
z
" style="fill:#1f77b4;stroke:#000000;stroke-linejoin:miter;"/>
   </g>
   <g id="patch_51">
    <path clip-path="url(#pbbac1d0228)" d="M 240.714904 314.265278 
L 244.476827 314.265278 
L 244.476827 286.358562 
L 240.714904 286.358562 
z
" style="fill:#1f77b4;stroke:#000000;stroke-linejoin:miter;"/>
   </g>
   <g id="patch_52">
    <path clip-path="url(#pbbac1d0228)" d="M 244.476827 314.265278 
L 248.23875 314.265278 
L 248.23875 290.312783 
L 244.476827 290.312783 
z
" style="fill:#1f77b4;stroke:#000000;stroke-linejoin:miter;"/>
   </g>
   <g id="patch_53">
    <path clip-path="url(#pbbac1d0228)" d="M 248.23875 314.265278 
L 252.000673 314.265278 
L 252.000673 294.302178 
L 248.23875 294.302178 
z
" style="fill:#1f77b4;stroke:#000000;stroke-linejoin:miter;"/>
   </g>
   <g id="patch_54">
    <path clip-path="url(#pbbac1d0228)" d="M 252.000673 314.265278 
L 255.762596 314.265278 
L 255.762596 297.43126 
L 252.000673 297.43126 
z
" style="fill:#1f77b4;stroke:#000000;stroke-linejoin:miter;"/>
   </g>
   <g id="patch_55">
    <path clip-path="url(#pbbac1d0228)" d="M 255.762596 314.265278 
L 259.524519 314.265278 
L 259.524519 299.941853 
L 255.762596 299.941853 
z
" style="fill:#1f77b4;stroke:#000000;stroke-linejoin:miter;"/>
   </g>
   <g id="patch_56">
    <path clip-path="url(#pbbac1d0228)" d="M 259.524519 314.265278 
L 263.286442 314.265278 
L 263.286442 302.028884 
L 259.524519 302.028884 
z
" style="fill:#1f77b4;stroke:#000000;stroke-linejoin:miter;"/>
   </g>
   <g id="patch_57">
    <path clip-path="url(#pbbac1d0228)" d="M 263.286442 314.265278 
L 267.048365 314.265278 
L 267.048365 303.942973 
L 263.286442 303.942973 
z
" style="fill:#1f77b4;stroke:#000000;stroke-linejoin:miter;"/>
   </g>
   <g id="patch_58">
    <path clip-path="url(#pbbac1d0228)" d="M 267.048365 314.265278 
L 270.810288 314.265278 
L 270.810288 305.399792 
L 267.048365 305.399792 
z
" style="fill:#1f77b4;stroke:#000000;stroke-linejoin:miter;"/>
   </g>
   <g id="patch_59">
    <path clip-path="url(#pbbac1d0228)" d="M 270.810288 314.265278 
L 274.572212 314.265278 
L 274.572212 306.852213 
L 270.810288 306.852213 
z
" style="fill:#1f77b4;stroke:#000000;stroke-linejoin:miter;"/>
   </g>
   <g id="patch_60">
    <path clip-path="url(#pbbac1d0228)" d="M 274.572212 314.265278 
L 278.334135 314.265278 
L 278.334135 307.964612 
L 274.572212 307.964612 
z
" style="fill:#1f77b4;stroke:#000000;stroke-linejoin:miter;"/>
   </g>
   <g id="patch_61">
    <path clip-path="url(#pbbac1d0228)" d="M 278.334135 314.265278 
L 282.096058 314.265278 
L 282.096058 309.056493 
L 278.334135 309.056493 
z
" style="fill:#1f77b4;stroke:#000000;stroke-linejoin:miter;"/>
   </g>
   <g id="patch_62">
    <path clip-path="url(#pbbac1d0228)" d="M 282.096058 314.265278 
L 285.857981 314.265278 
L 285.857981 310.117596 
L 282.096058 310.117596 
z
" style="fill:#1f77b4;stroke:#000000;stroke-linejoin:miter;"/>
   </g>
   <g id="patch_63">
    <path clip-path="url(#pbbac1d0228)" d="M 285.857981 314.265278 
L 289.619904 314.265278 
L 289.619904 310.643751 
L 285.857981 310.643751 
z
" style="fill:#1f77b4;stroke:#000000;stroke-linejoin:miter;"/>
   </g>
   <g id="patch_64">
    <path clip-path="url(#pbbac1d0228)" d="M 289.619904 314.265278 
L 293.381827 314.265278 
L 293.381827 311.476219 
L 289.619904 311.476219 
z
" style="fill:#1f77b4;stroke:#000000;stroke-linejoin:miter;"/>
   </g>
   <g id="patch_65">
    <path clip-path="url(#pbbac1d0228)" d="M 293.381827 314.265278 
L 297.14375 314.265278 
L 297.14375 312.138675 
L 293.381827 312.138675 
z
" style="fill:#1f77b4;stroke:#000000;stroke-linejoin:miter;"/>
   </g>
   <g id="patch_66">
    <path clip-path="url(#pbbac1d0228)" d="M 297.14375 314.265278 
L 300.905673 314.265278 
L 300.905673 312.503613 
L 297.14375 312.503613 
z
" style="fill:#1f77b4;stroke:#000000;stroke-linejoin:miter;"/>
   </g>
   <g id="patch_67">
    <path clip-path="url(#pbbac1d0228)" d="M 300.905673 314.265278 
L 304.667596 314.265278 
L 304.667596 313.064942 
L 300.905673 313.064942 
z
" style="fill:#1f77b4;stroke:#000000;stroke-linejoin:miter;"/>
   </g>
   <g id="patch_68">
    <path clip-path="url(#pbbac1d0228)" d="M 304.667596 314.265278 
L 308.429519 314.265278 
L 308.429519 313.177794 
L 304.667596 313.177794 
z
" style="fill:#1f77b4;stroke:#000000;stroke-linejoin:miter;"/>
   </g>
   <g id="patch_69">
    <path clip-path="url(#pbbac1d0228)" d="M 308.429519 314.265278 
L 312.191442 314.265278 
L 312.191442 313.185122 
L 308.429519 313.185122 
z
" style="fill:#1f77b4;stroke:#000000;stroke-linejoin:miter;"/>
   </g>
   <g id="patch_70">
    <path clip-path="url(#pbbac1d0228)" d="M 312.191442 314.265278 
L 315.953365 314.265278 
L 315.953365 313.410826 
L 312.191442 313.410826 
z
" style="fill:#1f77b4;stroke:#000000;stroke-linejoin:miter;"/>
   </g>
   <g id="patch_71">
    <path clip-path="url(#pbbac1d0228)" d="M 315.953365 314.265278 
L 319.715288 314.265278 
L 319.715288 313.733261 
L 315.953365 313.733261 
z
" style="fill:#1f77b4;stroke:#000000;stroke-linejoin:miter;"/>
   </g>
   <g id="patch_72">
    <path clip-path="url(#pbbac1d0228)" d="M 319.715288 314.265278 
L 323.477212 314.265278 
L 323.477212 313.810938 
L 319.715288 313.810938 
z
" style="fill:#1f77b4;stroke:#000000;stroke-linejoin:miter;"/>
   </g>
   <g id="patch_73">
    <path clip-path="url(#pbbac1d0228)" d="M 323.477212 314.265278 
L 327.239135 314.265278 
L 327.239135 313.913531 
L 323.477212 313.913531 
z
" style="fill:#1f77b4;stroke:#000000;stroke-linejoin:miter;"/>
   </g>
   <g id="patch_74">
    <path clip-path="url(#pbbac1d0228)" d="M 327.239135 314.265278 
L 331.001058 314.265278 
L 331.001058 314.004399 
L 327.239135 314.004399 
z
" style="fill:#1f77b4;stroke:#000000;stroke-linejoin:miter;"/>
   </g>
   <g id="patch_75">
    <path clip-path="url(#pbbac1d0228)" d="M 331.001058 314.265278 
L 334.762981 314.265278 
L 334.762981 314.06742 
L 331.001058 314.06742 
z
" style="fill:#1f77b4;stroke:#000000;stroke-linejoin:miter;"/>
   </g>
   <g id="patch_76">
    <path clip-path="url(#pbbac1d0228)" d="M 334.762981 314.265278 
L 338.524904 314.265278 
L 338.524904 314.126045 
L 334.762981 314.126045 
z
" style="fill:#1f77b4;stroke:#000000;stroke-linejoin:miter;"/>
   </g>
   <g id="patch_77">
    <path clip-path="url(#pbbac1d0228)" d="M 338.524904 314.265278 
L 342.286827 314.265278 
L 342.286827 314.155357 
L 338.524904 314.155357 
z
" style="fill:#1f77b4;stroke:#000000;stroke-linejoin:miter;"/>
   </g>
   <g id="patch_78">
    <path clip-path="url(#pbbac1d0228)" d="M 342.286827 314.265278 
L 346.04875 314.265278 
L 346.04875 314.196394 
L 342.286827 314.196394 
z
" style="fill:#1f77b4;stroke:#000000;stroke-linejoin:miter;"/>
   </g>
   <g id="patch_79">
    <path clip-path="url(#pbbac1d0228)" d="M 346.04875 314.265278 
L 349.810673 314.265278 
L 349.810673 314.216913 
L 346.04875 314.216913 
z
" style="fill:#1f77b4;stroke:#000000;stroke-linejoin:miter;"/>
   </g>
   <g id="patch_80">
    <path clip-path="url(#pbbac1d0228)" d="M 349.810673 314.265278 
L 353.572596 314.265278 
L 353.572596 314.222775 
L 349.810673 314.222775 
z
" style="fill:#1f77b4;stroke:#000000;stroke-linejoin:miter;"/>
   </g>
   <g id="patch_81">
    <path clip-path="url(#pbbac1d0228)" d="M 353.572596 314.265278 
L 357.334519 314.265278 
L 357.334519 314.228638 
L 353.572596 314.228638 
z
" style="fill:#1f77b4;stroke:#000000;stroke-linejoin:miter;"/>
   </g>
   <g id="patch_82">
    <path clip-path="url(#pbbac1d0228)" d="M 357.334519 314.265278 
L 361.096442 314.265278 
L 361.096442 314.237431 
L 357.334519 314.237431 
z
" style="fill:#1f77b4;stroke:#000000;stroke-linejoin:miter;"/>
   </g>
   <g id="patch_83">
    <path clip-path="url(#pbbac1d0228)" d="M 361.096442 314.265278 
L 364.858365 314.265278 
L 364.858365 314.241828 
L 361.096442 314.241828 
z
" style="fill:#1f77b4;stroke:#000000;stroke-linejoin:miter;"/>
   </g>
   <g id="patch_84">
    <path clip-path="url(#pbbac1d0228)" d="M 364.858365 314.265278 
L 368.620288 314.265278 
L 368.620288 314.250622 
L 364.858365 314.250622 
z
" style="fill:#1f77b4;stroke:#000000;stroke-linejoin:miter;"/>
   </g>
   <g id="patch_85">
    <path clip-path="url(#pbbac1d0228)" d="M 368.620288 314.265278 
L 372.382212 314.265278 
L 372.382212 314.249156 
L 368.620288 314.249156 
z
" style="fill:#1f77b4;stroke:#000000;stroke-linejoin:miter;"/>
   </g>
   <g id="patch_86">
    <path clip-path="url(#pbbac1d0228)" d="M 372.382212 314.265278 
L 376.144135 314.265278 
L 376.144135 314.25795 
L 372.382212 314.25795 
z
" style="fill:#1f77b4;stroke:#000000;stroke-linejoin:miter;"/>
   </g>
   <g id="patch_87">
    <path clip-path="url(#pbbac1d0228)" d="M 376.144135 314.265278 
L 379.906058 314.265278 
L 379.906058 314.25795 
L 376.144135 314.25795 
z
" style="fill:#1f77b4;stroke:#000000;stroke-linejoin:miter;"/>
   </g>
   <g id="patch_88">
    <path clip-path="url(#pbbac1d0228)" d="M 379.906058 314.265278 
L 383.667981 314.265278 
L 383.667981 314.259416 
L 379.906058 314.259416 
z
" style="fill:#1f77b4;stroke:#000000;stroke-linejoin:miter;"/>
   </g>
   <g id="patch_89">
    <path clip-path="url(#pbbac1d0228)" d="M 383.667981 314.265278 
L 387.429904 314.265278 
L 387.429904 314.260881 
L 383.667981 314.260881 
z
" style="fill:#1f77b4;stroke:#000000;stroke-linejoin:miter;"/>
   </g>
   <g id="patch_90">
    <path clip-path="url(#pbbac1d0228)" d="M 387.429904 314.265278 
L 391.191827 314.265278 
L 391.191827 314.262347 
L 387.429904 314.262347 
z
" style="fill:#1f77b4;stroke:#000000;stroke-linejoin:miter;"/>
   </g>
   <g id="patch_91">
    <path clip-path="url(#pbbac1d0228)" d="M 391.191827 314.265278 
L 394.95375 314.265278 
L 394.95375 314.263812 
L 391.191827 314.263812 
z
" style="fill:#1f77b4;stroke:#000000;stroke-linejoin:miter;"/>
   </g>
   <g id="patch_92">
    <path clip-path="url(#pbbac1d0228)" d="M 394.95375 314.265278 
L 398.715673 314.265278 
L 398.715673 314.263812 
L 394.95375 314.263812 
z
" style="fill:#1f77b4;stroke:#000000;stroke-linejoin:miter;"/>
   </g>
   <g id="patch_93">
    <path clip-path="url(#pbbac1d0228)" d="M 398.715673 314.265278 
L 402.477596 314.265278 
L 402.477596 314.262347 
L 398.715673 314.262347 
z
" style="fill:#1f77b4;stroke:#000000;stroke-linejoin:miter;"/>
   </g>
   <g id="patch_94">
    <path clip-path="url(#pbbac1d0228)" d="M 402.477596 314.265278 
L 406.239519 314.265278 
L 406.239519 314.263812 
L 402.477596 314.263812 
z
" style="fill:#1f77b4;stroke:#000000;stroke-linejoin:miter;"/>
   </g>
   <g id="patch_95">
    <path clip-path="url(#pbbac1d0228)" d="M 406.239519 314.265278 
L 410.001442 314.265278 
L 410.001442 314.265278 
L 406.239519 314.265278 
z
" style="fill:#1f77b4;stroke:#000000;stroke-linejoin:miter;"/>
   </g>
   <g id="patch_96">
    <path clip-path="url(#pbbac1d0228)" d="M 410.001442 314.265278 
L 413.763365 314.265278 
L 413.763365 314.265278 
L 410.001442 314.265278 
z
" style="fill:#1f77b4;stroke:#000000;stroke-linejoin:miter;"/>
   </g>
   <g id="patch_97">
    <path clip-path="url(#pbbac1d0228)" d="M 413.763365 314.265278 
L 417.525288 314.265278 
L 417.525288 314.265278 
L 413.763365 314.265278 
z
" style="fill:#1f77b4;stroke:#000000;stroke-linejoin:miter;"/>
   </g>
   <g id="patch_98">
    <path clip-path="url(#pbbac1d0228)" d="M 417.525288 314.265278 
L 421.287212 314.265278 
L 421.287212 314.263812 
L 417.525288 314.263812 
z
" style="fill:#1f77b4;stroke:#000000;stroke-linejoin:miter;"/>
   </g>
   <g id="patch_99">
    <path clip-path="url(#pbbac1d0228)" d="M 421.287212 314.265278 
L 425.049135 314.265278 
L 425.049135 314.265278 
L 421.287212 314.265278 
z
" style="fill:#1f77b4;stroke:#000000;stroke-linejoin:miter;"/>
   </g>
   <g id="patch_100">
    <path clip-path="url(#pbbac1d0228)" d="M 425.049135 314.265278 
L 428.811058 314.265278 
L 428.811058 314.265278 
L 425.049135 314.265278 
z
" style="fill:#1f77b4;stroke:#000000;stroke-linejoin:miter;"/>
   </g>
   <g id="patch_101">
    <path clip-path="url(#pbbac1d0228)" d="M 428.811058 314.265278 
L 432.572981 314.265278 
L 432.572981 314.265278 
L 428.811058 314.265278 
z
" style="fill:#1f77b4;stroke:#000000;stroke-linejoin:miter;"/>
   </g>
   <g id="patch_102">
    <path clip-path="url(#pbbac1d0228)" d="M 432.572981 314.265278 
L 436.334904 314.265278 
L 436.334904 314.263812 
L 432.572981 314.263812 
z
" style="fill:#1f77b4;stroke:#000000;stroke-linejoin:miter;"/>
   </g>
   <g id="matplotlib.axis_1">
    <g id="xtick_1">
     <g id="line2d_1">
      <defs>
       <path d="M 0 0 
L 0 3.5 
" id="m979864b04c" style="stroke:#000000;stroke-width:0.8;"/>
      </defs>
      <g>
       <use style="stroke:#000000;stroke-width:0.8;" x="60.142596" xlink:href="#m979864b04c" y="314.265278"/>
      </g>
     </g>
     <g id="text_1">
      <!-- 1 -->
      <defs>
       <path d="M 12.40625 8.296875 
L 28.515625 8.296875 
L 28.515625 63.921875 
L 10.984375 60.40625 
L 10.984375 69.390625 
L 28.421875 72.90625 
L 38.28125 72.90625 
L 38.28125 8.296875 
L 54.390625 8.296875 
L 54.390625 0 
L 12.40625 0 
z
" id="DejaVuSans-31"/>
      </defs>
      <g transform="translate(56.961346 328.863716)scale(0.1 -0.1)">
       <use xlink:href="#DejaVuSans-31"/>
      </g>
     </g>
    </g>
    <g id="xtick_2">
     <g id="line2d_2">
      <g>
       <use style="stroke:#000000;stroke-width:0.8;" x="108.637759" xlink:href="#m979864b04c" y="314.265278"/>
      </g>
     </g>
     <g id="text_2">
      <!-- 2 -->
      <defs>
       <path d="M 19.1875 8.296875 
L 53.609375 8.296875 
L 53.609375 0 
L 7.328125 0 
L 7.328125 8.296875 
Q 12.9375 14.109375 22.625 23.890625 
Q 32.328125 33.6875 34.8125 36.53125 
Q 39.546875 41.84375 41.421875 45.53125 
Q 43.3125 49.21875 43.3125 52.78125 
Q 43.3125 58.59375 39.234375 62.25 
Q 35.15625 65.921875 28.609375 65.921875 
Q 23.96875 65.921875 18.8125 64.3125 
Q 13.671875 62.703125 7.8125 59.421875 
L 7.8125 69.390625 
Q 13.765625 71.78125 18.9375 73 
Q 24.125 74.21875 28.421875 74.21875 
Q 39.75 74.21875 46.484375 68.546875 
Q 53.21875 62.890625 53.21875 53.421875 
Q 53.21875 48.921875 51.53125 44.890625 
Q 49.859375 40.875 45.40625 35.40625 
Q 44.1875 33.984375 37.640625 27.21875 
Q 31.109375 20.453125 19.1875 8.296875 
z
" id="DejaVuSans-32"/>
      </defs>
      <g transform="translate(105.456509 328.863716)scale(0.1 -0.1)">
       <use xlink:href="#DejaVuSans-32"/>
      </g>
     </g>
    </g>
    <g id="xtick_3">
     <g id="line2d_3">
      <g>
       <use style="stroke:#000000;stroke-width:0.8;" x="157.132921" xlink:href="#m979864b04c" y="314.265278"/>
      </g>
     </g>
     <g id="text_3">
      <!-- 3 -->
      <defs>
       <path d="M 40.578125 39.3125 
Q 47.65625 37.796875 51.625 33 
Q 55.609375 28.21875 55.609375 21.1875 
Q 55.609375 10.40625 48.1875 4.484375 
Q 40.765625 -1.421875 27.09375 -1.421875 
Q 22.515625 -1.421875 17.65625 -0.515625 
Q 12.796875 0.390625 7.625 2.203125 
L 7.625 11.71875 
Q 11.71875 9.328125 16.59375 8.109375 
Q 21.484375 6.890625 26.8125 6.890625 
Q 36.078125 6.890625 40.9375 10.546875 
Q 45.796875 14.203125 45.796875 21.1875 
Q 45.796875 27.640625 41.28125 31.265625 
Q 36.765625 34.90625 28.71875 34.90625 
L 20.21875 34.90625 
L 20.21875 43.015625 
L 29.109375 43.015625 
Q 36.375 43.015625 40.234375 45.921875 
Q 44.09375 48.828125 44.09375 54.296875 
Q 44.09375 59.90625 40.109375 62.90625 
Q 36.140625 65.921875 28.71875 65.921875 
Q 24.65625 65.921875 20.015625 65.03125 
Q 15.375 64.15625 9.8125 62.3125 
L 9.8125 71.09375 
Q 15.4375 72.65625 20.34375 73.4375 
Q 25.25 74.21875 29.59375 74.21875 
Q 40.828125 74.21875 47.359375 69.109375 
Q 53.90625 64.015625 53.90625 55.328125 
Q 53.90625 49.265625 50.4375 45.09375 
Q 46.96875 40.921875 40.578125 39.3125 
z
" id="DejaVuSans-33"/>
      </defs>
      <g transform="translate(153.951671 328.863716)scale(0.1 -0.1)">
       <use xlink:href="#DejaVuSans-33"/>
      </g>
     </g>
    </g>
    <g id="xtick_4">
     <g id="line2d_4">
      <g>
       <use style="stroke:#000000;stroke-width:0.8;" x="205.628084" xlink:href="#m979864b04c" y="314.265278"/>
      </g>
     </g>
     <g id="text_4">
      <!-- 4 -->
      <defs>
       <path d="M 37.796875 64.3125 
L 12.890625 25.390625 
L 37.796875 25.390625 
z
M 35.203125 72.90625 
L 47.609375 72.90625 
L 47.609375 25.390625 
L 58.015625 25.390625 
L 58.015625 17.1875 
L 47.609375 17.1875 
L 47.609375 0 
L 37.796875 0 
L 37.796875 17.1875 
L 4.890625 17.1875 
L 4.890625 26.703125 
z
" id="DejaVuSans-34"/>
      </defs>
      <g transform="translate(202.446834 328.863716)scale(0.1 -0.1)">
       <use xlink:href="#DejaVuSans-34"/>
      </g>
     </g>
    </g>
    <g id="xtick_5">
     <g id="line2d_5">
      <g>
       <use style="stroke:#000000;stroke-width:0.8;" x="254.123246" xlink:href="#m979864b04c" y="314.265278"/>
      </g>
     </g>
     <g id="text_5">
      <!-- 5 -->
      <defs>
       <path d="M 10.796875 72.90625 
L 49.515625 72.90625 
L 49.515625 64.59375 
L 19.828125 64.59375 
L 19.828125 46.734375 
Q 21.96875 47.46875 24.109375 47.828125 
Q 26.265625 48.1875 28.421875 48.1875 
Q 40.625 48.1875 47.75 41.5 
Q 54.890625 34.8125 54.890625 23.390625 
Q 54.890625 11.625 47.5625 5.09375 
Q 40.234375 -1.421875 26.90625 -1.421875 
Q 22.3125 -1.421875 17.546875 -0.640625 
Q 12.796875 0.140625 7.71875 1.703125 
L 7.71875 11.625 
Q 12.109375 9.234375 16.796875 8.0625 
Q 21.484375 6.890625 26.703125 6.890625 
Q 35.15625 6.890625 40.078125 11.328125 
Q 45.015625 15.765625 45.015625 23.390625 
Q 45.015625 31 40.078125 35.4375 
Q 35.15625 39.890625 26.703125 39.890625 
Q 22.75 39.890625 18.8125 39.015625 
Q 14.890625 38.140625 10.796875 36.28125 
z
" id="DejaVuSans-35"/>
      </defs>
      <g transform="translate(250.941996 328.863716)scale(0.1 -0.1)">
       <use xlink:href="#DejaVuSans-35"/>
      </g>
     </g>
    </g>
    <g id="xtick_6">
     <g id="line2d_6">
      <g>
       <use style="stroke:#000000;stroke-width:0.8;" x="302.618409" xlink:href="#m979864b04c" y="314.265278"/>
      </g>
     </g>
     <g id="text_6">
      <!-- 6 -->
      <defs>
       <path d="M 33.015625 40.375 
Q 26.375 40.375 22.484375 35.828125 
Q 18.609375 31.296875 18.609375 23.390625 
Q 18.609375 15.53125 22.484375 10.953125 
Q 26.375 6.390625 33.015625 6.390625 
Q 39.65625 6.390625 43.53125 10.953125 
Q 47.40625 15.53125 47.40625 23.390625 
Q 47.40625 31.296875 43.53125 35.828125 
Q 39.65625 40.375 33.015625 40.375 
z
M 52.59375 71.296875 
L 52.59375 62.3125 
Q 48.875 64.0625 45.09375 64.984375 
Q 41.3125 65.921875 37.59375 65.921875 
Q 27.828125 65.921875 22.671875 59.328125 
Q 17.53125 52.734375 16.796875 39.40625 
Q 19.671875 43.65625 24.015625 45.921875 
Q 28.375 48.1875 33.59375 48.1875 
Q 44.578125 48.1875 50.953125 41.515625 
Q 57.328125 34.859375 57.328125 23.390625 
Q 57.328125 12.15625 50.6875 5.359375 
Q 44.046875 -1.421875 33.015625 -1.421875 
Q 20.359375 -1.421875 13.671875 8.265625 
Q 6.984375 17.96875 6.984375 36.375 
Q 6.984375 53.65625 15.1875 63.9375 
Q 23.390625 74.21875 37.203125 74.21875 
Q 40.921875 74.21875 44.703125 73.484375 
Q 48.484375 72.75 52.59375 71.296875 
z
" id="DejaVuSans-36"/>
      </defs>
      <g transform="translate(299.437159 328.863716)scale(0.1 -0.1)">
       <use xlink:href="#DejaVuSans-36"/>
      </g>
     </g>
    </g>
    <g id="xtick_7">
     <g id="line2d_7">
      <g>
       <use style="stroke:#000000;stroke-width:0.8;" x="351.113572" xlink:href="#m979864b04c" y="314.265278"/>
      </g>
     </g>
     <g id="text_7">
      <!-- 7 -->
      <defs>
       <path d="M 8.203125 72.90625 
L 55.078125 72.90625 
L 55.078125 68.703125 
L 28.609375 0 
L 18.3125 0 
L 43.21875 64.59375 
L 8.203125 64.59375 
z
" id="DejaVuSans-37"/>
      </defs>
      <g transform="translate(347.932322 328.863716)scale(0.1 -0.1)">
       <use xlink:href="#DejaVuSans-37"/>
      </g>
     </g>
    </g>
    <g id="xtick_8">
     <g id="line2d_8">
      <g>
       <use style="stroke:#000000;stroke-width:0.8;" x="399.608734" xlink:href="#m979864b04c" y="314.265278"/>
      </g>
     </g>
     <g id="text_8">
      <!-- 8 -->
      <defs>
       <path d="M 31.78125 34.625 
Q 24.75 34.625 20.71875 30.859375 
Q 16.703125 27.09375 16.703125 20.515625 
Q 16.703125 13.921875 20.71875 10.15625 
Q 24.75 6.390625 31.78125 6.390625 
Q 38.8125 6.390625 42.859375 10.171875 
Q 46.921875 13.96875 46.921875 20.515625 
Q 46.921875 27.09375 42.890625 30.859375 
Q 38.875 34.625 31.78125 34.625 
z
M 21.921875 38.8125 
Q 15.578125 40.375 12.03125 44.71875 
Q 8.5 49.078125 8.5 55.328125 
Q 8.5 64.0625 14.71875 69.140625 
Q 20.953125 74.21875 31.78125 74.21875 
Q 42.671875 74.21875 48.875 69.140625 
Q 55.078125 64.0625 55.078125 55.328125 
Q 55.078125 49.078125 51.53125 44.71875 
Q 48 40.375 41.703125 38.8125 
Q 48.828125 37.15625 52.796875 32.3125 
Q 56.78125 27.484375 56.78125 20.515625 
Q 56.78125 9.90625 50.3125 4.234375 
Q 43.84375 -1.421875 31.78125 -1.421875 
Q 19.734375 -1.421875 13.25 4.234375 
Q 6.78125 9.90625 6.78125 20.515625 
Q 6.78125 27.484375 10.78125 32.3125 
Q 14.796875 37.15625 21.921875 38.8125 
z
M 18.3125 54.390625 
Q 18.3125 48.734375 21.84375 45.5625 
Q 25.390625 42.390625 31.78125 42.390625 
Q 38.140625 42.390625 41.71875 45.5625 
Q 45.3125 48.734375 45.3125 54.390625 
Q 45.3125 60.0625 41.71875 63.234375 
Q 38.140625 66.40625 31.78125 66.40625 
Q 25.390625 66.40625 21.84375 63.234375 
Q 18.3125 60.0625 18.3125 54.390625 
z
" id="DejaVuSans-38"/>
      </defs>
      <g transform="translate(396.427484 328.863716)scale(0.1 -0.1)">
       <use xlink:href="#DejaVuSans-38"/>
      </g>
     </g>
    </g>
    <g id="xtick_9">
     <g id="line2d_9">
      <defs>
       <path d="M 0 0 
L 0 2 
" id="m4075377819" style="stroke:#000000;stroke-width:0.6;"/>
      </defs>
      <g>
       <use style="stroke:#000000;stroke-width:0.6;" x="69.841629" xlink:href="#m4075377819" y="314.265278"/>
      </g>
     </g>
    </g>
    <g id="xtick_10">
     <g id="line2d_10">
      <g>
       <use style="stroke:#000000;stroke-width:0.6;" x="79.540661" xlink:href="#m4075377819" y="314.265278"/>
      </g>
     </g>
    </g>
    <g id="xtick_11">
     <g id="line2d_11">
      <g>
       <use style="stroke:#000000;stroke-width:0.6;" x="89.239694" xlink:href="#m4075377819" y="314.265278"/>
      </g>
     </g>
    </g>
    <g id="xtick_12">
     <g id="line2d_12">
      <g>
       <use style="stroke:#000000;stroke-width:0.6;" x="98.938726" xlink:href="#m4075377819" y="314.265278"/>
      </g>
     </g>
    </g>
    <g id="xtick_13">
     <g id="line2d_13">
      <g>
       <use style="stroke:#000000;stroke-width:0.6;" x="118.336791" xlink:href="#m4075377819" y="314.265278"/>
      </g>
     </g>
    </g>
    <g id="xtick_14">
     <g id="line2d_14">
      <g>
       <use style="stroke:#000000;stroke-width:0.6;" x="128.035824" xlink:href="#m4075377819" y="314.265278"/>
      </g>
     </g>
    </g>
    <g id="xtick_15">
     <g id="line2d_15">
      <g>
       <use style="stroke:#000000;stroke-width:0.6;" x="137.734856" xlink:href="#m4075377819" y="314.265278"/>
      </g>
     </g>
    </g>
    <g id="xtick_16">
     <g id="line2d_16">
      <g>
       <use style="stroke:#000000;stroke-width:0.6;" x="147.433889" xlink:href="#m4075377819" y="314.265278"/>
      </g>
     </g>
    </g>
    <g id="xtick_17">
     <g id="line2d_17">
      <g>
       <use style="stroke:#000000;stroke-width:0.6;" x="166.831954" xlink:href="#m4075377819" y="314.265278"/>
      </g>
     </g>
    </g>
    <g id="xtick_18">
     <g id="line2d_18">
      <g>
       <use style="stroke:#000000;stroke-width:0.6;" x="176.530986" xlink:href="#m4075377819" y="314.265278"/>
      </g>
     </g>
    </g>
    <g id="xtick_19">
     <g id="line2d_19">
      <g>
       <use style="stroke:#000000;stroke-width:0.6;" x="186.230019" xlink:href="#m4075377819" y="314.265278"/>
      </g>
     </g>
    </g>
    <g id="xtick_20">
     <g id="line2d_20">
      <g>
       <use style="stroke:#000000;stroke-width:0.6;" x="195.929051" xlink:href="#m4075377819" y="314.265278"/>
      </g>
     </g>
    </g>
    <g id="xtick_21">
     <g id="line2d_21">
      <g>
       <use style="stroke:#000000;stroke-width:0.6;" x="215.327116" xlink:href="#m4075377819" y="314.265278"/>
      </g>
     </g>
    </g>
    <g id="xtick_22">
     <g id="line2d_22">
      <g>
       <use style="stroke:#000000;stroke-width:0.6;" x="225.026149" xlink:href="#m4075377819" y="314.265278"/>
      </g>
     </g>
    </g>
    <g id="xtick_23">
     <g id="line2d_23">
      <g>
       <use style="stroke:#000000;stroke-width:0.6;" x="234.725181" xlink:href="#m4075377819" y="314.265278"/>
      </g>
     </g>
    </g>
    <g id="xtick_24">
     <g id="line2d_24">
      <g>
       <use style="stroke:#000000;stroke-width:0.6;" x="244.424214" xlink:href="#m4075377819" y="314.265278"/>
      </g>
     </g>
    </g>
    <g id="xtick_25">
     <g id="line2d_25">
      <g>
       <use style="stroke:#000000;stroke-width:0.6;" x="263.822279" xlink:href="#m4075377819" y="314.265278"/>
      </g>
     </g>
    </g>
    <g id="xtick_26">
     <g id="line2d_26">
      <g>
       <use style="stroke:#000000;stroke-width:0.6;" x="273.521312" xlink:href="#m4075377819" y="314.265278"/>
      </g>
     </g>
    </g>
    <g id="xtick_27">
     <g id="line2d_27">
      <g>
       <use style="stroke:#000000;stroke-width:0.6;" x="283.220344" xlink:href="#m4075377819" y="314.265278"/>
      </g>
     </g>
    </g>
    <g id="xtick_28">
     <g id="line2d_28">
      <g>
       <use style="stroke:#000000;stroke-width:0.6;" x="292.919377" xlink:href="#m4075377819" y="314.265278"/>
      </g>
     </g>
    </g>
    <g id="xtick_29">
     <g id="line2d_29">
      <g>
       <use style="stroke:#000000;stroke-width:0.6;" x="312.317442" xlink:href="#m4075377819" y="314.265278"/>
      </g>
     </g>
    </g>
    <g id="xtick_30">
     <g id="line2d_30">
      <g>
       <use style="stroke:#000000;stroke-width:0.6;" x="322.016474" xlink:href="#m4075377819" y="314.265278"/>
      </g>
     </g>
    </g>
    <g id="xtick_31">
     <g id="line2d_31">
      <g>
       <use style="stroke:#000000;stroke-width:0.6;" x="331.715507" xlink:href="#m4075377819" y="314.265278"/>
      </g>
     </g>
    </g>
    <g id="xtick_32">
     <g id="line2d_32">
      <g>
       <use style="stroke:#000000;stroke-width:0.6;" x="341.414539" xlink:href="#m4075377819" y="314.265278"/>
      </g>
     </g>
    </g>
    <g id="xtick_33">
     <g id="line2d_33">
      <g>
       <use style="stroke:#000000;stroke-width:0.6;" x="360.812604" xlink:href="#m4075377819" y="314.265278"/>
      </g>
     </g>
    </g>
    <g id="xtick_34">
     <g id="line2d_34">
      <g>
       <use style="stroke:#000000;stroke-width:0.6;" x="370.511637" xlink:href="#m4075377819" y="314.265278"/>
      </g>
     </g>
    </g>
    <g id="xtick_35">
     <g id="line2d_35">
      <g>
       <use style="stroke:#000000;stroke-width:0.6;" x="380.210669" xlink:href="#m4075377819" y="314.265278"/>
      </g>
     </g>
    </g>
    <g id="xtick_36">
     <g id="line2d_36">
      <g>
       <use style="stroke:#000000;stroke-width:0.6;" x="389.909702" xlink:href="#m4075377819" y="314.265278"/>
      </g>
     </g>
    </g>
    <g id="xtick_37">
     <g id="line2d_37">
      <g>
       <use style="stroke:#000000;stroke-width:0.6;" x="409.307767" xlink:href="#m4075377819" y="314.265278"/>
      </g>
     </g>
    </g>
    <g id="xtick_38">
     <g id="line2d_38">
      <g>
       <use style="stroke:#000000;stroke-width:0.6;" x="419.006799" xlink:href="#m4075377819" y="314.265278"/>
      </g>
     </g>
    </g>
    <g id="xtick_39">
     <g id="line2d_39">
      <g>
       <use style="stroke:#000000;stroke-width:0.6;" x="428.705832" xlink:href="#m4075377819" y="314.265278"/>
      </g>
     </g>
    </g>
    <g id="xtick_40">
     <g id="line2d_40">
      <g>
       <use style="stroke:#000000;stroke-width:0.6;" x="438.404864" xlink:href="#m4075377819" y="314.265278"/>
      </g>
     </g>
    </g>
   </g>
   <g id="matplotlib.axis_2">
    <g id="ytick_1">
     <g id="line2d_41">
      <defs>
       <path d="M 0 0 
L -3.5 0 
" id="mdfc491e93a" style="stroke:#000000;stroke-width:0.8;"/>
      </defs>
      <g>
       <use style="stroke:#000000;stroke-width:0.8;" x="42.61875" xlink:href="#mdfc491e93a" y="314.265278"/>
      </g>
     </g>
     <g id="text_9">
      <!-- 0 -->
      <defs>
       <path d="M 31.78125 66.40625 
Q 24.171875 66.40625 20.328125 58.90625 
Q 16.5 51.421875 16.5 36.375 
Q 16.5 21.390625 20.328125 13.890625 
Q 24.171875 6.390625 31.78125 6.390625 
Q 39.453125 6.390625 43.28125 13.890625 
Q 47.125 21.390625 47.125 36.375 
Q 47.125 51.421875 43.28125 58.90625 
Q 39.453125 66.40625 31.78125 66.40625 
z
M 31.78125 74.21875 
Q 44.046875 74.21875 50.515625 64.515625 
Q 56.984375 54.828125 56.984375 36.375 
Q 56.984375 17.96875 50.515625 8.265625 
Q 44.046875 -1.421875 31.78125 -1.421875 
Q 19.53125 -1.421875 13.0625 8.265625 
Q 6.59375 17.96875 6.59375 36.375 
Q 6.59375 54.828125 13.0625 64.515625 
Q 19.53125 74.21875 31.78125 74.21875 
z
" id="DejaVuSans-30"/>
      </defs>
      <g transform="translate(29.25625 318.064497)scale(0.1 -0.1)">
       <use xlink:href="#DejaVuSans-30"/>
      </g>
     </g>
    </g>
    <g id="ytick_2">
     <g id="line2d_42">
      <g>
       <use style="stroke:#000000;stroke-width:0.8;" x="42.61875" xlink:href="#mdfc491e93a" y="240.984682"/>
      </g>
     </g>
     <g id="text_10">
      <!-- 5e4 -->
      <defs>
       <path d="M 56.203125 29.59375 
L 56.203125 25.203125 
L 14.890625 25.203125 
Q 15.484375 15.921875 20.484375 11.0625 
Q 25.484375 6.203125 34.421875 6.203125 
Q 39.59375 6.203125 44.453125 7.46875 
Q 49.3125 8.734375 54.109375 11.28125 
L 54.109375 2.78125 
Q 49.265625 0.734375 44.1875 -0.34375 
Q 39.109375 -1.421875 33.890625 -1.421875 
Q 20.796875 -1.421875 13.15625 6.1875 
Q 5.515625 13.8125 5.515625 26.8125 
Q 5.515625 40.234375 12.765625 48.109375 
Q 20.015625 56 32.328125 56 
Q 43.359375 56 49.78125 48.890625 
Q 56.203125 41.796875 56.203125 29.59375 
z
M 47.21875 32.234375 
Q 47.125 39.59375 43.09375 43.984375 
Q 39.0625 48.390625 32.421875 48.390625 
Q 24.90625 48.390625 20.390625 44.140625 
Q 15.875 39.890625 15.1875 32.171875 
z
" id="DejaVuSans-65"/>
      </defs>
      <g transform="translate(16.740625 244.783901)scale(0.1 -0.1)">
       <use xlink:href="#DejaVuSans-35"/>
       <use x="63.623047" xlink:href="#DejaVuSans-65"/>
       <use x="125.146484" xlink:href="#DejaVuSans-34"/>
      </g>
     </g>
    </g>
    <g id="ytick_3">
     <g id="line2d_43">
      <g>
       <use style="stroke:#000000;stroke-width:0.8;" x="42.61875" xlink:href="#mdfc491e93a" y="167.704087"/>
      </g>
     </g>
     <g id="text_11">
      <!-- 1e5 -->
      <g transform="translate(16.740625 171.503305)scale(0.1 -0.1)">
       <use xlink:href="#DejaVuSans-31"/>
       <use x="63.623047" xlink:href="#DejaVuSans-65"/>
       <use x="125.146484" xlink:href="#DejaVuSans-35"/>
      </g>
     </g>
    </g>
    <g id="ytick_4">
     <g id="line2d_44">
      <g>
       <use style="stroke:#000000;stroke-width:0.8;" x="42.61875" xlink:href="#mdfc491e93a" y="94.423491"/>
      </g>
     </g>
     <g id="text_12">
      <!-- 1.5e5 -->
      <defs>
       <path d="M 10.6875 12.40625 
L 21 12.40625 
L 21 0 
L 10.6875 0 
z
" id="DejaVuSans-2e"/>
      </defs>
      <g transform="translate(7.2 98.22271)scale(0.1 -0.1)">
       <use xlink:href="#DejaVuSans-31"/>
       <use x="63.623047" xlink:href="#DejaVuSans-2e"/>
       <use x="95.410156" xlink:href="#DejaVuSans-35"/>
       <use x="159.033203" xlink:href="#DejaVuSans-65"/>
       <use x="220.556641" xlink:href="#DejaVuSans-35"/>
      </g>
     </g>
    </g>
    <g id="ytick_5">
     <g id="line2d_45">
      <g>
       <use style="stroke:#000000;stroke-width:0.8;" x="42.61875" xlink:href="#mdfc491e93a" y="21.142895"/>
      </g>
     </g>
     <g id="text_13">
      <!-- 2e5 -->
      <g transform="translate(16.740625 24.942114)scale(0.1 -0.1)">
       <use xlink:href="#DejaVuSans-32"/>
       <use x="63.623047" xlink:href="#DejaVuSans-65"/>
       <use x="125.146484" xlink:href="#DejaVuSans-35"/>
      </g>
     </g>
    </g>
    <g id="ytick_6">
     <g id="line2d_46">
      <defs>
       <path d="M 0 0 
L -2 0 
" id="mf0165539a2" style="stroke:#000000;stroke-width:0.6;"/>
      </defs>
      <g>
       <use style="stroke:#000000;stroke-width:0.6;" x="42.61875" xlink:href="#mf0165539a2" y="299.609159"/>
      </g>
     </g>
    </g>
    <g id="ytick_7">
     <g id="line2d_47">
      <g>
       <use style="stroke:#000000;stroke-width:0.6;" x="42.61875" xlink:href="#mf0165539a2" y="284.95304"/>
      </g>
     </g>
    </g>
    <g id="ytick_8">
     <g id="line2d_48">
      <g>
       <use style="stroke:#000000;stroke-width:0.6;" x="42.61875" xlink:href="#mf0165539a2" y="270.296921"/>
      </g>
     </g>
    </g>
    <g id="ytick_9">
     <g id="line2d_49">
      <g>
       <use style="stroke:#000000;stroke-width:0.6;" x="42.61875" xlink:href="#mf0165539a2" y="255.640802"/>
      </g>
     </g>
    </g>
    <g id="ytick_10">
     <g id="line2d_50">
      <g>
       <use style="stroke:#000000;stroke-width:0.6;" x="42.61875" xlink:href="#mf0165539a2" y="226.328563"/>
      </g>
     </g>
    </g>
    <g id="ytick_11">
     <g id="line2d_51">
      <g>
       <use style="stroke:#000000;stroke-width:0.6;" x="42.61875" xlink:href="#mf0165539a2" y="211.672444"/>
      </g>
     </g>
    </g>
    <g id="ytick_12">
     <g id="line2d_52">
      <g>
       <use style="stroke:#000000;stroke-width:0.6;" x="42.61875" xlink:href="#mf0165539a2" y="197.016325"/>
      </g>
     </g>
    </g>
    <g id="ytick_13">
     <g id="line2d_53">
      <g>
       <use style="stroke:#000000;stroke-width:0.6;" x="42.61875" xlink:href="#mf0165539a2" y="182.360206"/>
      </g>
     </g>
    </g>
    <g id="ytick_14">
     <g id="line2d_54">
      <g>
       <use style="stroke:#000000;stroke-width:0.6;" x="42.61875" xlink:href="#mf0165539a2" y="153.047968"/>
      </g>
     </g>
    </g>
    <g id="ytick_15">
     <g id="line2d_55">
      <g>
       <use style="stroke:#000000;stroke-width:0.6;" x="42.61875" xlink:href="#mf0165539a2" y="138.391848"/>
      </g>
     </g>
    </g>
    <g id="ytick_16">
     <g id="line2d_56">
      <g>
       <use style="stroke:#000000;stroke-width:0.6;" x="42.61875" xlink:href="#mf0165539a2" y="123.735729"/>
      </g>
     </g>
    </g>
    <g id="ytick_17">
     <g id="line2d_57">
      <g>
       <use style="stroke:#000000;stroke-width:0.6;" x="42.61875" xlink:href="#mf0165539a2" y="109.07961"/>
      </g>
     </g>
    </g>
    <g id="ytick_18">
     <g id="line2d_58">
      <g>
       <use style="stroke:#000000;stroke-width:0.6;" x="42.61875" xlink:href="#mf0165539a2" y="79.767372"/>
      </g>
     </g>
    </g>
    <g id="ytick_19">
     <g id="line2d_59">
      <g>
       <use style="stroke:#000000;stroke-width:0.6;" x="42.61875" xlink:href="#mf0165539a2" y="65.111253"/>
      </g>
     </g>
    </g>
    <g id="ytick_20">
     <g id="line2d_60">
      <g>
       <use style="stroke:#000000;stroke-width:0.6;" x="42.61875" xlink:href="#mf0165539a2" y="50.455134"/>
      </g>
     </g>
    </g>
    <g id="ytick_21">
     <g id="line2d_61">
      <g>
       <use style="stroke:#000000;stroke-width:0.6;" x="42.61875" xlink:href="#mf0165539a2" y="35.799014"/>
      </g>
     </g>
    </g>
   </g>
   <g id="patch_103">
    <path d="M 42.61875 320.217538 
L 42.61875 10.7 
" style="fill:none;stroke:#000000;stroke-linecap:square;stroke-linejoin:miter;stroke-width:0.8;"/>
   </g>
   <g id="patch_104">
    <path d="M 52.61875 314.265278 
L 443.85875 314.265278 
" style="fill:none;stroke:#000000;stroke-linecap:square;stroke-linejoin:miter;stroke-width:0.8;"/>
   </g>
  </g>
 </g>
 <defs>
  <clipPath id="pbbac1d0228">
   <rect height="309.517538" width="391.24" x="52.61875" y="10.7"/>
  </clipPath>
 </defs>
</svg>
